<svg width="2811" height="1360" viewBox="0 0 2811 1360" fill="none" xmlns="http://www.w3.org/2000/svg">
<g opacity="0.3" filter="url(#filter0_f_1286_1452)">
<path d="M1768.58 281.765C1432.83 341.961 1233.58 572.88 1323.54 797.536C1413.51 1022.19 1758.62 1155.51 2094.36 1095.32C2430.11 1035.12 2629.36 804.202 2539.4 579.546C2449.43 354.89 2104.33 221.569 1768.58 281.765Z" fill="url(#paint0_linear_1286_1452)" fill-opacity="0.6"/>
<path d="M1033.51 1092.46C1466.22 1092.46 1817.01 903.869 1817.01 671.23C1817.01 438.591 1466.22 250 1033.51 250C600.787 250 250 438.591 250 671.23C250 903.869 600.787 1092.46 1033.51 1092.46Z" fill="url(#paint1_linear_1286_1452)" fill-opacity="0.4"/>
</g>
<defs>
<filter id="filter0_f_1286_1452" x="0" y="0" width="2811" height="1359.77" filterUnits="userSpaceOnUse" color-interpolation-filters="sRGB">
<feFlood flood-opacity="0" result="BackgroundImageFix"/>
<feBlend mode="normal" in="SourceGraphic" in2="BackgroundImageFix" result="shape"/>
<feGaussianBlur stdDeviation="125" result="effect1_foregroundBlur_1286_1452"/>
</filter>
<linearGradient id="paint0_linear_1286_1452" x1="1360.61" y1="780.705" x2="2511.16" y2="923.271" gradientUnits="userSpaceOnUse">
<stop stop-color="#001AFF"/>
<stop offset="1" stop-color="#6EE5C2"/>
</linearGradient>
<linearGradient id="paint1_linear_1286_1452" x1="356.29" y1="746.533" x2="1406.99" y2="257.816" gradientUnits="userSpaceOnUse">
<stop stop-color="#FFC83A"/>
<stop offset="0.504191" stop-color="#FF008A"/>
<stop offset="1" stop-color="#6100FF"/>
</linearGradient>
</defs>
</svg>
