<svg width="25" height="24" viewBox="0 0 25 24" fill="none" xmlns="http://www.w3.org/2000/svg">
<path fill-rule="evenodd" clip-rule="evenodd" d="M3.0718 6.365C2.7998 6.9 2.7998 7.6 2.7998 9V15C2.7998 16.4 2.7998 17.1 3.0718 17.635C3.3117 18.1053 3.69431 18.4875 4.1648 18.727C4.6998 19 5.3998 19 6.7998 19H18.7998C20.1998 19 20.8998 19 21.4348 18.727C21.9049 18.4874 22.2872 18.1051 22.5268 17.635C22.7998 17.1 22.7998 16.4 22.7998 15V9C22.7998 7.6 22.7998 6.9 22.5268 6.365C22.2873 5.89451 21.9051 5.51189 21.4348 5.272C20.8998 5 20.1998 5 18.7998 5H6.7998C5.3998 5 4.6998 5 4.1648 5.272C3.69416 5.51173 3.31153 5.89435 3.0718 6.365ZM5.4468 7H20.1528C20.2602 6.99987 20.3647 7.0343 20.451 7.09819C20.5373 7.16209 20.6007 7.25206 20.6319 7.35479C20.663 7.45753 20.6603 7.56757 20.6241 7.66864C20.5879 7.76971 20.5201 7.85644 20.4308 7.916L13.3558 12.648C13.1913 12.7581 12.9978 12.8168 12.7998 12.8168C12.6018 12.8168 12.4083 12.7581 12.2438 12.648L5.1688 7.916C5.07948 7.85644 5.0117 7.76971 4.97549 7.66864C4.93928 7.56757 4.93656 7.45753 4.96774 7.35479C4.99892 7.25206 5.06234 7.16209 5.14862 7.09819C5.23489 7.0343 5.33944 6.99987 5.4468 7Z" fill="#FFCD04"/>
</svg>
