<svg width="2480" height="1309" viewBox="0 0 2480 1309" fill="none" xmlns="http://www.w3.org/2000/svg">
<g opacity="0.3" filter="url(#filter0_f_1286_1701)">
<path d="M1812.46 1057.23C2078.51 1037.1 2262.75 840.483 2223.98 618.08C2185.22 395.676 1938.11 231.701 1672.07 251.831C1406.02 271.961 1221.77 468.573 1260.54 690.977C1299.31 913.38 1546.41 1077.36 1812.46 1057.23Z" fill="url(#paint0_linear_1286_1701)" fill-opacity="0.3"/>
<path d="M730.336 879.325C1011.63 919.482 1253.5 855.192 1270.55 735.729C1287.61 616.266 1073.39 486.868 792.095 446.711C510.796 406.554 268.933 470.844 251.879 590.307C234.825 709.771 449.038 839.168 730.336 879.325Z" fill="url(#paint1_linear_1286_1701)" fill-opacity="0.3"/>
</g>
<defs>
<filter id="filter0_f_1286_1701" x="0.927734" y="0.158745" width="2478.21" height="1308.74" filterUnits="userSpaceOnUse" color-interpolation-filters="sRGB">
<feFlood flood-opacity="0" result="BackgroundImageFix"/>
<feBlend mode="normal" in="SourceGraphic" in2="BackgroundImageFix" result="shape"/>
<feGaussianBlur stdDeviation="125" result="effect1_foregroundBlur_1286_1701"/>
</filter>
<linearGradient id="paint0_linear_1286_1701" x1="2193.23" y1="629.938" x2="1317.58" y2="413.724" gradientUnits="userSpaceOnUse">
<stop stop-color="#001AFF"/>
<stop offset="1" stop-color="#6EE5C2"/>
</linearGradient>
<linearGradient id="paint1_linear_1286_1701" x1="315.455" y1="638.841" x2="984.221" y2="363.653" gradientUnits="userSpaceOnUse">
<stop stop-color="#FFC83A"/>
<stop offset="0.504191" stop-color="#FF008A"/>
<stop offset="1" stop-color="#6100FF"/>
</linearGradient>
</defs>
</svg>
