<svg width="2459" height="1128" viewBox="0 0 2459 1128" fill="none" xmlns="http://www.w3.org/2000/svg">
<g opacity="0.3" filter="url(#filter0_f_1286_1695)">
<path d="M1811.81 877.779C2075.15 876.613 2249.01 752.749 2200.14 601.12C2151.27 449.492 1898.17 327.517 1634.83 328.683C1371.49 329.849 1197.62 453.713 1246.5 605.342C1295.37 756.971 1548.47 878.945 1811.81 877.779Z" fill="url(#paint0_linear_1286_1695)" fill-opacity="0.3"/>
<path d="M730.336 695.325C1011.63 735.482 1253.5 671.192 1270.55 551.729C1287.61 432.266 1073.39 302.868 792.095 262.711C510.796 222.554 268.933 286.844 251.879 406.307C234.825 525.77 449.038 655.168 730.336 695.325Z" fill="url(#paint1_linear_1286_1695)" fill-opacity="0.3"/>
</g>
<defs>
<filter id="filter0_f_1286_1695" x="0.927734" y="0.755127" width="2457.44" height="1127.03" filterUnits="userSpaceOnUse" color-interpolation-filters="sRGB">
<feFlood flood-opacity="0" result="BackgroundImageFix"/>
<feBlend mode="normal" in="SourceGraphic" in2="BackgroundImageFix" result="shape"/>
<feGaussianBlur stdDeviation="125" result="effect1_foregroundBlur_1286_1695"/>
</filter>
<linearGradient id="paint0_linear_1286_1695" x1="2170.15" y1="607.676" x2="1311.6" y2="350.057" gradientUnits="userSpaceOnUse">
<stop stop-color="#001AFF"/>
<stop offset="1" stop-color="#6EE5C2"/>
</linearGradient>
<linearGradient id="paint1_linear_1286_1695" x1="315.455" y1="454.84" x2="984.221" y2="179.652" gradientUnits="userSpaceOnUse">
<stop stop-color="#FFC83A"/>
<stop offset="0.504191" stop-color="#FF008A"/>
<stop offset="1" stop-color="#6100FF"/>
</linearGradient>
</defs>
</svg>
