<svg width="2459" height="1050" viewBox="0 0 2459 1050" fill="none" xmlns="http://www.w3.org/2000/svg">
<g opacity="0.3" filter="url(#filter0_f_1286_1689)">
<path d="M1811.81 799.779C2075.15 798.613 2249.01 674.749 2200.14 523.12C2151.27 371.491 1898.17 249.517 1634.83 250.683C1371.49 251.849 1197.62 375.713 1246.5 527.342C1295.37 678.97 1548.47 800.945 1811.81 799.779Z" fill="url(#paint0_linear_1286_1689)" fill-opacity="0.3"/>
<path d="M730.337 717.325C1011.64 757.482 1253.5 693.192 1270.55 573.729C1287.61 454.266 1073.39 324.868 792.095 284.711C510.796 244.554 268.934 308.844 251.88 428.307C234.826 547.77 449.038 677.168 730.337 717.325Z" fill="url(#paint1_linear_1286_1689)" fill-opacity="0.3"/>
</g>
<defs>
<filter id="filter0_f_1286_1689" x="0.928223" y="0.674805" width="2457.44" height="1049.11" filterUnits="userSpaceOnUse" color-interpolation-filters="sRGB">
<feFlood flood-opacity="0" result="BackgroundImageFix"/>
<feBlend mode="normal" in="SourceGraphic" in2="BackgroundImageFix" result="shape"/>
<feGaussianBlur stdDeviation="125" result="effect1_foregroundBlur_1286_1689"/>
</filter>
<linearGradient id="paint0_linear_1286_1689" x1="2170.15" y1="529.676" x2="1311.6" y2="272.057" gradientUnits="userSpaceOnUse">
<stop stop-color="#001AFF"/>
<stop offset="1" stop-color="#6EE5C2"/>
</linearGradient>
<linearGradient id="paint1_linear_1286_1689" x1="315.455" y1="476.84" x2="984.221" y2="201.652" gradientUnits="userSpaceOnUse">
<stop stop-color="#FFC83A"/>
<stop offset="0.504191" stop-color="#FF008A"/>
<stop offset="1" stop-color="#6100FF"/>
</linearGradient>
</defs>
</svg>
