<svg width="12" height="13" viewBox="0 0 12 13" fill="none" xmlns="http://www.w3.org/2000/svg">
<path d="M9.13316 8.40348C8.10823 8.01315 7.4952 7.61323 7.4952 7.61323L6.70735 10.1085L6.59959 10.4461L6.24757 9.44277C7.05936 8.31009 6.18531 8.2574 6.03444 8.25501H6.03205H6.02965H6.02726H6.02486C5.874 8.25501 4.99994 8.31009 5.81174 9.44277L5.45732 10.4437L5.34956 10.1061L4.56171 7.61084C4.56171 7.61084 3.94867 8.01075 2.92375 8.40108C1.79586 8.81058 1.8653 9.73971 1.84375 11.4782H5.81892H6.03444H10.2156C10.1916 9.73971 10.2611 8.81297 9.13316 8.40348Z" fill="black"/>
<path d="M4.25518 6.02751C4.34617 6.61421 4.79637 7.35895 5.54112 7.62237C5.84524 7.73013 6.1805 7.73013 6.48462 7.61997C7.2174 7.35656 7.68436 6.61421 7.77296 6.02751C7.87114 6.02033 8.00046 5.88143 8.13935 5.38813C8.33092 4.71283 8.12738 4.61465 7.95496 4.63141C7.98848 4.53802 8.01243 4.44702 8.02919 4.35363C8.32134 2.60791 7.46165 2.54564 7.46165 2.54564C7.46165 2.54564 7.32037 2.27265 6.9444 2.06431C6.69296 1.91584 6.34334 1.7985 5.88116 1.83921C5.73269 1.8464 5.59141 1.87513 5.45731 1.92063C5.28728 1.97811 5.13163 2.06192 4.99034 2.1601C4.81793 2.27026 4.65509 2.40436 4.51141 2.55762C4.28391 2.7899 4.08036 3.09163 3.99176 3.4676C3.91753 3.74777 3.93429 4.03993 3.99655 4.35602C4.01331 4.44702 4.03726 4.54041 4.07079 4.63381C3.89837 4.61704 3.69722 4.71762 3.8864 5.39053C4.02768 5.88143 4.15699 6.02033 4.25518 6.02751Z" fill="black"/>
</svg>
