<svg width="24" height="24" viewBox="0 0 24 24" fill="none" xmlns="http://www.w3.org/2000/svg">
<g clip-path="url(#clip0_1286_3174)">
<path fill-rule="evenodd" clip-rule="evenodd" d="M23.5685 20.7938C22.8277 23.045 19.9253 24.1677 17.8517 23.9805C15.0197 23.7245 11.9381 22.2224 9.59888 20.568C6.16048 18.136 2.93967 14.3741 1.06287 10.3821C-0.263527 7.56128 -0.561124 4.09312 1.41168 1.52192C2.14128 0.571519 2.93007 0.0639317 4.11567 0.00473173C5.76047 -0.0752683 5.99088 0.865694 6.55568 2.33129C6.97648 3.42729 7.53807 4.54529 7.85167 5.68129C8.43887 7.80129 6.38607 7.8899 6.12687 9.6227C5.96527 10.7155 7.29008 12.181 7.88848 12.9602C9.06128 14.4866 10.4709 15.8031 12.0613 16.8047C12.9717 17.3791 14.4421 18.4142 15.4853 17.843C17.0917 16.963 16.9397 14.2543 19.1861 15.1711C20.3493 15.6447 21.4757 16.3282 22.5861 16.9266C24.3029 17.8498 24.2229 18.8066 23.5685 20.7938C24.0581 19.309 23.0789 22.2786 23.5685 20.7938Z" fill="#085A87"/>
</g>
<defs>
<clipPath id="clip0_1286_3174">
<rect width="24" height="24" fill="white"/>
</clipPath>
</defs>
</svg>
