<svg width="25" height="24" viewBox="0 0 25 24" fill="none" xmlns="http://www.w3.org/2000/svg">
<g clip-path="url(#clip0_1286_1459)">
<path fill-rule="evenodd" clip-rule="evenodd" d="M24.3683 20.7938C23.6275 23.045 20.7251 24.1677 18.6515 23.9805C15.8195 23.7245 12.7379 22.2224 10.3987 20.568C6.96028 18.136 3.73948 14.3741 1.86268 10.3821C0.536277 7.56128 0.238681 4.09312 2.21148 1.52192C2.94108 0.571519 3.72988 0.0639317 4.91548 0.00473173C6.56028 -0.0752683 6.79068 0.865694 7.35548 2.33129C7.77628 3.42729 8.33788 4.54529 8.65148 5.68129C9.23868 7.80129 7.18588 7.8899 6.92668 9.6227C6.76508 10.7155 8.08988 12.181 8.68828 12.9602C9.86108 14.4866 11.2707 15.8031 12.8611 16.8047C13.7715 17.3791 15.2419 18.4142 16.2851 17.843C17.8915 16.963 17.7395 14.2543 19.9859 15.1711C21.1491 15.6447 22.2755 16.3282 23.3859 16.9266C25.1027 17.8498 25.0227 18.8066 24.3683 20.7938C24.8579 19.309 23.8787 22.2786 24.3683 20.7938Z" fill="#FFCD04"/>
</g>
<defs>
<clipPath id="clip0_1286_1459">
<rect width="24" height="24" fill="white" transform="translate(0.799805)"/>
</clipPath>
</defs>
</svg>
