<svg width="27" height="24" viewBox="0 0 27 24" fill="none" xmlns="http://www.w3.org/2000/svg">
<path d="M1.7334 6.75C1.7334 4.67894 3.54665 3 5.7834 3H20.3634C22.6001 3 24.4134 4.67894 24.4134 6.75V14.25C24.4134 16.3211 22.6001 18 20.3634 18H14.1877L9.22643 22.0196C8.19992 22.8513 6.5934 22.1763 6.5934 20.9133V18H5.7834C3.54665 18 1.7334 16.3211 1.7334 14.25V6.75ZM5.7834 4.5C4.44134 4.5 3.3534 5.50736 3.3534 6.75V14.25C3.3534 15.4926 4.44134 16.5 5.7834 16.5H8.2134V20.8472L13.579 16.5H20.3634C21.7054 16.5 22.7934 15.4926 22.7934 14.25V6.75C22.7934 5.50736 21.7054 4.5 20.3634 4.5H5.7834Z" fill="white"/>
</svg>
