<svg width="23" height="22" viewBox="0 0 23 22" fill="none" xmlns="http://www.w3.org/2000/svg">
<path d="M1.60742 6.1875C1.60742 4.28902 3.19552 2.75 5.15452 2.75H17.9241C19.8831 2.75 21.4712 4.28902 21.4712 6.1875V13.0625C21.4712 14.961 19.8831 16.5 17.9241 16.5H12.5153L8.17003 20.1846C7.27098 20.947 5.86394 20.3283 5.86394 19.1705V16.5H5.15452C3.19552 16.5 1.60742 14.961 1.60742 13.0625V6.1875ZM5.15452 4.125C3.97911 4.125 3.02626 5.04841 3.02626 6.1875V13.0625C3.02626 14.2016 3.97911 15.125 5.15452 15.125H7.28278V19.1099L11.9822 15.125H17.9241C19.0995 15.125 20.0523 14.2016 20.0523 13.0625V6.1875C20.0523 5.04841 19.0995 4.125 17.9241 4.125H5.15452Z" fill="black"/>
</svg>
