<svg width="40" height="40" viewBox="0 0 40 40" fill="none" xmlns="http://www.w3.org/2000/svg">
<g clip-path="url(#clip0_1292_288)">
<path d="M20 0C8.95312 0 0 8.95312 0 20C0 31.0469 8.95312 40 20 40C31.0469 40 40 31.0469 40 20C40 8.95312 31.0469 0 20 0ZM32.4844 32.4766C30.8594 34.1016 28.9766 35.375 26.875 36.2578C24.7031 37.1797 22.3906 37.6406 20 37.6406C17.6172 37.6406 15.3047 37.1719 13.125 36.2578C11.0234 35.3672 9.13281 34.0938 7.51562 32.4766C5.89062 30.8516 4.61719 28.9688 3.73438 26.8672C2.8125 24.6953 2.34375 22.3828 2.34375 20C2.34375 17.6172 2.8125 15.3047 3.72656 13.125C4.61719 11.0234 5.89062 9.13281 7.50781 7.51562C9.14062 5.89062 11.0234 4.61719 13.125 3.72656C15.3047 2.8125 17.6172 2.34375 20 2.34375C22.3828 2.34375 24.6953 2.8125 26.875 3.72656C28.9766 4.61719 30.8672 5.89063 32.4844 7.50781C34.1094 9.13281 35.3828 11.0156 36.2656 13.1172C37.1875 15.2891 37.6484 17.6016 37.6484 19.9922C37.6484 22.375 37.1797 24.6875 36.2656 26.8672C35.375 28.9688 34.1016 30.8594 32.4844 32.4766Z" fill="#085A87"/>
<path d="M22.6406 13.1797C23.4453 13.1797 24.3047 13.4297 24.3047 13.4297L24.8203 10.3672C24.8203 10.3672 23.7266 9.99219 21.1172 9.99219C19.5156 9.99219 18.5859 10.6016 17.9062 11.5C17.2656 12.3516 17.2422 13.7188 17.2422 14.6016V16.6094H15.1719V19.6016H17.2422V29.9922H21.1172V19.6016H24.1875L24.4141 16.6094H21.1172V14.2734C21.1172 13.4688 21.8359 13.1797 22.6406 13.1797Z" fill="#085A87"/>
</g>
<defs>
<clipPath id="clip0_1292_288">
<rect width="40" height="40" fill="white"/>
</clipPath>
</defs>
</svg>
