<svg width="175" height="151" viewBox="0 0 175 151" fill="none" xmlns="http://www.w3.org/2000/svg">
<path d="M110.908 148.778C129.97 145.043 147.05 136.335 158.973 121.205C177.967 97.1151 181.656 51.9339 156.131 25.6449C144.424 13.5975 127.008 6.98275 111.465 3.27515C94.7575 -0.713054 75.8515 -1.96886 60.8647 4.77474C36.6825 15.6399 25.8587 54.7721 10.3475 71.1481C-5.16371 87.5241 -2.99251 122.388 25.1411 135.268C40.0175 142.08 55.7771 147.044 71.6011 149.468C78.8542 150.655 86.2076 151.118 93.5523 150.848C99.3807 150.586 105.182 149.895 110.908 148.778Z" fill="#A9E1FF"/>
<path opacity="0.7" d="M110.908 148.778C129.97 145.043 147.05 136.335 158.973 121.205C177.967 97.1151 181.656 51.9339 156.131 25.6449C144.424 13.5975 127.008 6.98275 111.465 3.27515C94.7575 -0.713054 75.8515 -1.96886 60.8647 4.77474C36.6825 15.6399 25.8587 54.7721 10.3475 71.1481C-5.16371 87.5241 -2.99251 122.388 25.1411 135.268C40.0175 142.08 55.7771 147.044 71.6011 149.468C78.8542 150.655 86.2076 151.118 93.5523 150.848C99.3807 150.586 105.182 149.895 110.908 148.778Z" fill="white"/>
</svg>
