<svg width="41" height="89" viewBox="0 0 41 89" fill="none" xmlns="http://www.w3.org/2000/svg">
<path d="M19.7184 88.1732C26.7658 88.1732 32.4788 86.6492 32.4788 84.7692C32.4788 82.8893 26.7658 81.3652 19.7184 81.3652C12.671 81.3652 6.95801 82.8893 6.95801 84.7692C6.95801 86.6492 12.671 88.1732 19.7184 88.1732Z" fill="#92E3A9"/>
<path opacity="0.5" d="M19.7184 88.1732C26.7658 88.1732 32.4788 86.6492 32.4788 84.7692C32.4788 82.8893 26.7658 81.3652 19.7184 81.3652C12.671 81.3652 6.95801 82.8893 6.95801 84.7692C6.95801 86.6492 12.671 88.1732 19.7184 88.1732Z" fill="#085A87"/>
<path d="M0.627964 11.3349C0.55875 11.0824 0.5434 10.8182 0.582916 10.5594C0.622431 10.3005 0.715925 10.0529 0.857332 9.83255C0.99874 9.6122 1.18491 9.42404 1.40374 9.28029C1.62257 9.13653 1.86918 9.0404 2.12757 8.99812C3.68697 8.78652 5.60517 10.8841 6.21237 12.1537C6.26757 12.2641 6.88857 14.0765 6.86097 14.0765C6.83337 14.0765 4.10097 14.1363 2.96017 13.6441C1.99877 13.2209 0.890164 12.4205 0.627964 11.3349ZM40.7538 6.52333C40.5238 7.61353 39.4382 8.44612 38.486 8.89232C37.5338 9.33852 35.266 9.41673 34.7278 9.42592C34.4288 9.78473 34.1114 10.1665 33.7664 10.5989C33.173 11.3625 32.506 12.2319 31.8482 13.2255C31.6734 13.4877 31.494 13.7821 31.3146 14.0581C31.7148 13.6533 32.2668 13.1013 32.3266 13.0507C33.426 12.1767 36.071 11.1279 37.3866 11.9973C37.6015 12.1479 37.7821 12.3421 37.9167 12.5673C38.0514 12.7925 38.1369 13.0437 38.1677 13.3042C38.1985 13.5648 38.174 13.8289 38.0957 14.0793C38.0173 14.3297 37.887 14.5608 37.7132 14.7573C37.0094 15.6175 35.657 15.8567 34.6082 15.8153C33.5594 15.7739 31.4572 14.7757 31.0064 14.5503C30.6246 15.1759 30.2428 15.8245 29.884 16.5237C29.217 17.7913 28.6629 19.115 28.228 20.4797L28.3108 20.5211C28.6328 20.0979 29.3274 19.2285 29.3918 19.1411C30.39 18.1475 32.9016 16.8411 34.3 17.5403C34.532 17.6635 34.7349 17.835 34.8951 18.0432C35.0553 18.2513 35.1691 18.4914 35.2288 18.7472C35.2885 19.003 35.2927 19.2686 35.2412 19.5262C35.1897 19.7838 35.0837 20.0273 34.9302 20.2405C34.323 21.1605 33.0074 21.5607 31.9586 21.6205C30.7488 21.7033 28.251 20.7603 28.1544 20.7235C27.7584 22.0899 27.4511 23.4805 27.2344 24.8865C27.0734 25.9261 26.9492 26.9887 26.8388 28.0513C27.055 27.7477 27.9704 26.6069 28.044 26.5333C29.0422 25.5397 31.5538 24.2103 32.9522 24.9325C33.1811 25.0588 33.3808 25.2319 33.5384 25.4405C33.696 25.6491 33.808 25.8885 33.867 26.1431C33.926 26.3978 33.9307 26.6621 33.8809 26.9187C33.8311 27.1754 33.7278 27.4186 33.5778 27.6327C32.9706 28.5527 31.655 28.9529 30.6062 29.0127C29.4286 29.0955 27.032 28.2031 26.8296 28.1249C26.779 28.6079 26.7238 29.0909 26.6778 29.5785C26.5214 31.1609 26.3742 32.7479 26.181 34.3119C26.1166 34.8501 26.0292 35.3837 25.9464 35.9173C26.2868 35.4573 26.9216 34.6799 26.9814 34.6201C27.9796 33.6265 30.4912 32.2925 31.8942 33.0147C32.1232 33.1415 32.323 33.315 32.4806 33.524C32.6383 33.733 32.7502 33.9728 32.8092 34.2278C32.8682 34.4829 32.8729 34.7475 32.8231 35.0044C32.7732 35.2614 32.6699 35.5051 32.5198 35.7195C31.9126 36.6395 30.597 37.0397 29.5482 37.0995C28.4994 37.1593 26.4616 36.4647 25.8912 36.2577C25.744 37.1409 25.583 38.0149 25.3806 38.8705C25.284 39.2339 25.2104 39.6157 25.1 39.9607C24.9896 40.3057 24.8884 40.6599 24.7872 41.0049C24.548 41.7087 24.3272 42.3619 24.0926 43.0105C23.973 43.3417 23.8534 43.6499 23.7338 43.9673C24.0144 43.4705 24.4652 42.6839 24.5158 42.6195C25.353 41.4833 27.63 39.7905 29.1158 40.2919C29.3639 40.3787 29.5906 40.5176 29.7806 40.6993C29.9706 40.8811 30.1194 41.1014 30.217 41.3455C30.3146 41.5896 30.3588 41.8518 30.3466 42.1144C30.3344 42.377 30.2661 42.634 30.1462 42.8679C29.6862 43.8799 28.4442 44.4595 27.4184 44.7079C26.2914 44.9609 23.8626 44.4687 23.5682 44.4089C23.2738 45.1863 22.9794 45.9407 22.6896 46.6399C21.7696 48.8617 20.9416 50.6787 20.3344 51.9437L20.2378 52.1461H24.6538L23.1496 81.9403C23.0941 83.0297 22.6219 84.0561 21.8307 84.807C21.0396 85.5579 19.99 85.9759 18.8992 85.9745C17.8092 85.9747 16.7607 85.5562 15.9705 84.8054C15.1804 84.0546 14.7088 83.0289 14.6534 81.9403L13.1078 52.1921H17.8504C17.8504 51.9851 17.8044 51.7643 17.7768 51.5205C17.6204 50.1405 17.3628 48.1809 16.9534 45.8441C16.8338 45.1679 16.7004 44.4641 16.5532 43.7189C16.245 43.7603 13.7932 44.0731 12.6892 43.7189C11.6864 43.4107 10.4904 42.7391 10.1086 41.6949C10.0063 41.4526 9.95705 41.1912 9.9643 40.9283C9.97155 40.6654 10.0351 40.4071 10.1506 40.1709C10.2661 39.9346 10.431 39.7258 10.634 39.5587C10.837 39.3915 11.0735 39.2698 11.3276 39.2017C12.8548 38.8107 15.0076 40.6737 15.7482 41.8651C15.7988 41.9433 16.2634 42.9093 16.4888 43.4061C16.3968 42.9461 16.3094 42.5229 16.2082 42.0675C16.0656 41.4051 15.8954 40.6875 15.7482 40.0389L15.4584 38.9901C15.3664 38.6313 15.233 38.3001 15.1226 37.9505C14.9478 37.4399 14.7408 36.9247 14.5384 36.4049C13.876 36.5889 11.9164 37.0995 10.909 36.9523C9.90157 36.8051 8.58597 36.3175 8.05237 35.3423C7.91433 35.1186 7.82583 34.8678 7.79286 34.607C7.75989 34.3461 7.7832 34.0813 7.86123 33.8302C7.93925 33.5791 8.07018 33.3477 8.24518 33.1515C8.42019 32.9553 8.63521 32.7988 8.87576 32.6927C10.3294 32.0763 12.7306 33.5897 13.6506 34.6569C13.6828 34.6891 13.853 34.9375 14.0554 35.2273C13.8392 34.7305 13.6276 34.2337 13.393 33.7323C12.7306 32.3247 12.013 30.9033 11.2954 29.4819L10.8354 28.5895C10.2788 28.7459 8.16277 29.3163 7.10477 29.1599C6.04677 29.0035 4.78176 28.5297 4.24816 27.5545C4.11025 27.3305 4.022 27.0795 3.98934 26.8184C3.95669 26.5573 3.9804 26.2923 4.05887 26.0412C4.13735 25.7901 4.26876 25.5587 4.44425 25.3627C4.61973 25.1667 4.83523 25.0106 5.07617 24.9049C6.52517 24.2885 8.93097 25.8019 9.85097 26.8691C9.88317 26.9059 10.0856 27.2003 10.311 27.5269C9.93377 26.7495 9.56577 25.9675 9.22997 25.1809C8.63842 23.8359 8.13743 22.4528 7.73037 21.0409C7.53717 21.0961 5.06697 21.8137 3.89397 21.6435C2.85437 21.4917 1.59397 21.0087 1.03277 20.0335C0.899331 19.8084 0.81472 19.5576 0.784418 19.2977C0.754117 19.0377 0.778797 18.7742 0.856869 18.5244C0.934941 18.2746 1.06467 18.0439 1.23761 17.8475C1.41055 17.651 1.62285 17.4931 1.86076 17.3839C3.30976 16.7675 5.71556 18.2809 6.63556 19.3481C6.69996 19.4217 7.43137 20.4889 7.67977 20.8799V20.8293C7.31357 19.4322 7.07341 18.0051 6.96217 16.5651C6.85536 15.2801 6.82463 13.9898 6.87017 12.7011C6.89777 11.5051 6.99897 10.4011 7.09097 9.44432C7.15077 8.92452 7.21057 8.44612 7.27037 7.99992H7.24277C7.24277 7.99992 6.69077 6.15992 6.67237 6.05872C6.43777 4.67872 6.80577 1.84973 8.20877 1.12753C8.44454 1.01427 8.70148 0.951791 8.96294 0.944155C9.22439 0.93652 9.48453 0.983895 9.72651 1.0832C9.96849 1.18251 10.1869 1.33154 10.3676 1.52064C10.5483 1.70974 10.6873 1.93469 10.7756 2.18092C11.185 3.21592 10.7342 4.51312 10.1868 5.40092C9.63936 6.28872 7.80397 7.60432 7.34857 7.92172C7.29337 8.38172 7.24276 8.87852 7.19676 9.42592C7.11856 10.3919 7.04497 11.4821 7.04037 12.6781C7.04037 12.9955 7.04037 13.3359 7.04037 13.6671C7.14617 13.1059 7.30257 12.3377 7.33017 12.2871C7.76257 10.9485 9.38636 8.60713 10.9642 8.60713C11.2258 8.61573 11.4827 8.67908 11.7183 8.79311C11.9539 8.90713 12.1629 9.06929 12.332 9.26912C12.501 9.46895 12.6263 9.702 12.6997 9.95324C12.7731 10.2045 12.793 10.4683 12.7582 10.7277C12.6432 11.8363 11.6496 12.7793 10.748 13.3221C9.84636 13.8649 7.52796 14.1915 7.06796 14.2421C7.09096 14.9781 7.12777 15.7279 7.21977 16.5145C7.36612 17.952 7.64326 19.3732 8.04777 20.7603H8.13517C8.17197 20.2313 8.27317 19.1227 8.29157 19.0353C8.57677 17.6553 9.93377 15.1575 11.5116 14.9873C11.7723 14.9673 12.0343 15.0022 12.2807 15.0896C12.5271 15.1771 12.7525 15.3152 12.9423 15.495C13.1321 15.6748 13.2822 15.8925 13.3828 16.1338C13.4833 16.3752 13.5323 16.6349 13.5264 16.8963C13.5264 18.0095 12.6478 19.0583 11.8152 19.6977C10.8538 20.4337 8.25017 21.0271 8.13517 21.0501C8.55995 22.4056 9.07318 23.7317 9.67157 25.0199C10.1086 25.9767 10.5916 26.9289 11.0838 27.8811C11.0838 27.5085 11.231 26.0411 11.254 25.9491C11.5392 24.5691 12.8962 22.0713 14.474 21.9011C14.7351 21.8811 14.9975 21.9161 15.2442 22.0038C15.491 22.0915 15.7166 22.23 15.9065 22.4103C16.0964 22.5907 16.2463 22.8089 16.3466 23.0508C16.4469 23.2927 16.4953 23.5529 16.4888 23.8147C16.4888 24.9233 15.6102 25.9721 14.7776 26.6115C13.8576 27.3337 11.346 27.9087 11.1344 27.9593C11.3598 28.3871 11.5944 28.8195 11.8106 29.2519C12.5558 30.6549 13.3102 32.0625 14.0094 33.4747C14.2532 33.9623 14.4694 34.4499 14.6948 34.9421C14.7362 34.3855 14.8282 33.3735 14.8466 33.2861C15.1318 31.9061 16.4934 29.4129 18.0666 29.2427C18.3284 29.2175 18.5926 29.2487 18.8413 29.3343C19.0901 29.4198 19.3176 29.5577 19.5085 29.7386C19.6995 29.9195 19.8494 30.1392 19.9482 30.383C20.047 30.6268 20.0924 30.8889 20.0814 31.1517C20.0814 32.2649 19.2028 33.3137 18.3702 33.9531C17.5376 34.5925 15.4492 35.1261 14.8558 35.2687C15.2238 36.0875 15.5688 36.9063 15.8724 37.7297C15.992 38.0885 16.1392 38.4427 16.2404 38.7923C16.3416 39.1419 16.452 39.4915 16.5532 39.8365C16.7418 40.5541 16.9212 41.2165 17.0822 41.8973C17.165 42.2377 17.2386 42.5597 17.3122 42.8909C17.2708 42.3205 17.2156 41.4143 17.2202 41.3315C17.2938 39.9285 18.2552 37.2559 19.7824 36.8465C20.0369 36.7871 20.301 36.7818 20.5577 36.8309C20.8144 36.88 21.058 36.9825 21.2726 37.1316C21.4872 37.2808 21.6681 37.4733 21.8036 37.6968C21.9392 37.9202 22.0263 38.1697 22.0594 38.4289C22.0823 38.5657 22.0915 38.7043 22.087 38.8429C22.7078 39.9146 23.0421 41.1281 23.0576 42.3665C23.0576 42.4539 22.9104 43.5165 22.8276 44.0593C22.9932 43.6407 23.1634 43.2221 23.329 42.7851C23.5774 42.1549 23.8166 41.4833 24.0558 40.8347C24.1662 40.4897 24.2766 40.1447 24.3916 39.7951C24.5066 39.4455 24.5848 39.1005 24.686 38.7463C24.8194 38.2265 24.9344 37.6791 25.0494 37.1363C24.3916 36.9247 22.478 36.2669 21.719 35.5907C20.96 34.9145 20.132 33.7783 20.224 32.6697C20.2363 32.4081 20.3036 32.1519 20.4216 31.918C20.5396 31.6841 20.7056 31.4778 20.9087 31.3124C21.1119 31.147 21.3476 31.0263 21.6006 30.9582C21.8536 30.8901 22.118 30.8761 22.3768 30.9171C23.9224 31.2023 25.0954 33.7921 25.2748 35.1859C25.2748 35.2319 25.2748 35.5309 25.2748 35.8851C25.3714 35.3515 25.468 34.8225 25.5508 34.2751C25.7762 32.7341 25.9556 31.1563 26.1442 29.5739C26.1856 29.2427 26.2316 28.9161 26.2684 28.5849C25.7164 28.4101 23.6372 27.7155 22.8414 27.0025C22.0456 26.2895 21.2544 25.1947 21.3464 24.0861C21.3587 23.8245 21.426 23.5683 21.544 23.3344C21.662 23.1005 21.828 22.8941 22.0311 22.7288C22.2343 22.5634 22.47 22.4427 22.723 22.3746C22.976 22.3065 23.2404 22.2925 23.4992 22.3335C25.0448 22.6187 26.2178 25.2085 26.3972 26.6023C26.3972 26.6529 26.3972 27.0117 26.3972 27.4119C26.5122 26.5517 26.641 25.6961 26.7882 24.8543C27.0396 23.4069 27.3869 21.9778 27.8278 20.5763C27.63 20.5119 25.1782 19.7483 24.295 18.9617C23.5084 18.2579 22.7034 17.1493 22.7954 16.0407C22.8084 15.7793 22.8762 15.5235 22.9944 15.29C23.1126 15.0565 23.2786 14.8504 23.4816 14.6851C23.6846 14.5199 23.92 14.3991 24.1727 14.3307C24.4253 14.2623 24.6895 14.2478 24.9482 14.2881C26.4984 14.5733 27.6668 17.1631 27.8462 18.5569C27.8462 18.6581 27.883 19.9369 27.8738 20.3969V20.3463C28.3418 18.9807 28.9282 17.6585 29.6264 16.3949C30.2478 15.2658 30.9343 14.1737 31.6826 13.1243C32.368 12.1399 33.0626 11.2843 33.6652 10.5299C34.001 10.1251 34.3138 9.76172 34.6128 9.42592H34.576C34.5484 9.42592 35.1234 7.58592 35.174 7.48932C35.7444 6.20132 37.6074 4.05313 39.1714 4.22333C39.435 4.25163 39.6894 4.33657 39.9171 4.47233C40.1448 4.60808 40.3405 4.79145 40.4908 5.00988C40.6411 5.22831 40.7424 5.47664 40.7878 5.73785C40.8332 5.99907 40.8216 6.26701 40.7538 6.52333ZM22.685 44.3353C22.4182 44.2065 20.3482 43.1807 19.5432 42.3113C18.8442 42.69 18.1238 43.0279 17.3858 43.3233C17.5698 44.1329 17.74 44.9241 17.8872 45.6693C18.3472 48.0245 18.6554 50.0025 18.8486 51.3917C18.89 51.6861 18.9222 51.9483 18.9544 52.1921H19.0602C19.1614 51.9851 19.2764 51.7689 19.4052 51.5159C20.0308 50.2831 20.9002 48.5029 21.8478 46.3225C22.1238 45.6969 22.4044 45.0253 22.685 44.3353ZM30.942 14.2513C30.965 14.2513 31.4434 12.4113 31.4618 12.2917C31.655 10.9117 31.2088 8.09193 29.792 7.40653C29.5531 7.29937 29.2944 7.24363 29.0327 7.2429C28.7709 7.24218 28.5119 7.2965 28.2725 7.40233C28.033 7.50817 27.8185 7.66316 27.6429 7.85724C27.4672 8.05132 27.3343 8.28017 27.2528 8.52893C26.871 9.57773 27.354 10.8565 27.9244 11.7489C28.596 12.7747 30.9374 14.2513 30.942 14.2513Z" fill="#FFCD04"/>
</svg>
