<svg width="18" height="17" viewBox="0 0 18 17" fill="none" xmlns="http://www.w3.org/2000/svg">
<path d="M9.07922 11.9458C9.85542 11.9458 10.4846 12.575 10.4846 13.3512C10.4846 14.1274 9.85542 14.7566 9.07922 14.7566C8.30302 14.7566 7.67383 14.1274 7.67383 13.3512C7.67383 12.575 8.30302 11.9458 9.07922 11.9458Z" fill="#F5F5F5"/>
<path d="M9.07922 7.02685C9.85542 7.02685 10.4846 7.65605 10.4846 8.43225C10.4846 9.20845 9.85542 9.83765 9.07922 9.83765C8.30302 9.83765 7.67383 9.20845 7.67383 8.43225C7.67383 7.65605 8.30302 7.02685 9.07922 7.02685Z" fill="#F5F5F5"/>
<path d="M9.07922 2.10791C9.85542 2.10791 10.4846 2.7371 10.4846 3.51331C10.4846 4.28951 9.85542 4.9187 9.07922 4.9187C8.30302 4.9187 7.67383 4.28951 7.67383 3.51331C7.67383 2.7371 8.30302 2.10791 9.07922 2.10791Z" fill="#F5F5F5"/>
</svg>
