<svg width="15" height="15" viewBox="0 0 15 15" fill="none" xmlns="http://www.w3.org/2000/svg">
<rect x="0.458008" y="0.754883" width="14.054" height="14.054" rx="7.02698" fill="#FFCD04"/>
<path d="M4.10222 6.95724C4.19489 6.86762 4.29835 6.7877 4.40544 6.71635C4.61318 6.57785 4.80207 6.5042 4.92946 6.5042C5.05686 6.5042 5.24575 6.57785 5.45349 6.71635C5.61615 6.82475 5.73991 6.94095 5.75552 6.95609C6.00556 7.19789 6.40979 7.20491 6.6588 6.9559C6.90826 6.70644 6.90826 6.30196 6.6588 6.05248C6.50881 5.90274 6.33818 5.7706 6.16219 5.65326C5.89081 5.47235 5.44089 5.22656 4.92946 5.22656C4.41804 5.22656 3.96812 5.47235 3.69674 5.65326C3.52091 5.77048 3.35059 5.90253 3.20059 6.05202C2.95505 6.2982 2.95305 6.70881 3.20012 6.9559C3.44906 7.20485 3.85262 7.2051 4.10222 6.95724Z" fill="#0F0F0F"/>
<path d="M5.49758 8.76652C5.33754 8.45638 4.95737 8.33168 4.64429 8.48825C4.32873 8.64604 4.20082 9.02978 4.3586 9.34529C4.41127 9.45031 4.47836 9.54875 4.54868 9.64253C4.66546 9.79827 4.84174 9.9988 5.08987 10.1973C5.59423 10.6008 6.37183 10.9761 7.48523 10.9761C8.59862 10.9761 9.37625 10.6008 9.8806 10.1973C10.1287 9.9988 10.305 9.79827 10.4218 9.64253C10.4924 9.54843 10.5566 9.44999 10.6115 9.34599C10.7678 9.03457 10.6378 8.64406 10.3262 8.48825C10.0131 8.33168 9.63293 8.45638 9.4729 8.76652C9.46409 8.78243 9.34386 8.99049 9.08246 9.19964C8.78835 9.43491 8.28828 9.69843 7.48523 9.69843C6.68217 9.69843 6.18216 9.43491 5.888 9.19964C5.6266 8.99049 5.5064 8.78243 5.49758 8.76652Z" fill="#0F0F0F"/>
<path fill-rule="evenodd" clip-rule="evenodd" d="M7.48499 14.8088C11.3659 14.8088 14.512 11.6627 14.512 7.78186C14.512 3.90097 11.3659 0.754883 7.48499 0.754883C3.6041 0.754883 0.458008 3.90097 0.458008 7.78186C0.458008 11.6627 3.6041 14.8088 7.48499 14.8088ZM7.48499 13.5269C4.31212 13.5269 1.74 10.9547 1.74 7.78186C1.74 4.609 4.31212 2.03688 7.48499 2.03688C10.6579 2.03688 13.23 4.609 13.23 7.78186C13.23 10.9547 10.6579 13.5269 7.48499 13.5269Z" fill="#0F0F0F"/>
<path d="M9.21255 6.95724C9.30524 6.86762 9.40873 6.7877 9.51579 6.71635C9.72354 6.57785 9.91244 6.5042 10.0398 6.5042C10.1672 6.5042 10.3561 6.57785 10.5638 6.71635C10.7265 6.82475 10.8503 6.94095 10.8659 6.95609C11.1159 7.19789 11.5201 7.20491 11.7692 6.9559C12.0186 6.70644 12.0186 6.30196 11.7692 6.05248C11.6192 5.90274 11.4485 5.7706 11.2725 5.65326C11.0012 5.47235 10.5513 5.22656 10.0398 5.22656C9.52838 5.22656 9.07846 5.47235 8.80709 5.65326C8.63123 5.77048 8.46092 5.90253 8.31092 6.05202C8.06543 6.2982 8.06338 6.70881 8.31048 6.9559C8.55942 7.20485 8.96296 7.2051 9.21255 6.95724Z" fill="#0F0F0F"/>
</svg>
