<svg width="15" height="16" viewBox="0 0 15 16" fill="none" xmlns="http://www.w3.org/2000/svg">
<path d="M11.3206 0.497559H4.0382C2.02824 0.497559 0.396973 2.12236 0.396973 4.12603V8.48312V9.21172C0.396973 11.2154 2.02824 12.8402 4.0382 12.8402H5.13056C5.32719 12.8402 5.58936 12.9713 5.71316 13.1316L6.80553 14.5816C7.28617 15.2227 8.07267 15.2227 8.55331 14.5816L9.64568 13.1316C9.78405 12.9495 10.0025 12.8402 10.2283 12.8402H11.3206C13.3306 12.8402 14.9619 11.2154 14.9619 9.21172V4.12603C14.9619 2.12236 13.3306 0.497559 11.3206 0.497559ZM4.76644 7.78365C4.35862 7.78365 4.0382 7.45578 4.0382 7.05504C4.0382 6.65431 4.36591 6.32643 4.76644 6.32643C5.16698 6.32643 5.49469 6.65431 5.49469 7.05504C5.49469 7.45578 5.17426 7.78365 4.76644 7.78365ZM7.67942 7.78365C7.2716 7.78365 6.95118 7.45578 6.95118 7.05504C6.95118 6.65431 7.27889 6.32643 7.67942 6.32643C8.07996 6.32643 8.40767 6.65431 8.40767 7.05504C8.40767 7.45578 8.08724 7.78365 7.67942 7.78365ZM10.5924 7.78365C10.1846 7.78365 9.86416 7.45578 9.86416 7.05504C9.86416 6.65431 10.1919 6.32643 10.5924 6.32643C10.9929 6.32643 11.3206 6.65431 11.3206 7.05504C11.3206 7.45578 11.0002 7.78365 10.5924 7.78365Z" fill="black"/>
</svg>
