<svg width="46" height="47" viewBox="0 0 46 47" fill="none" xmlns="http://www.w3.org/2000/svg">
<g filter="url(#filter0_b_1407_518)">
<circle cx="22.9746" cy="23.315" r="22.8125" fill="black" fill-opacity="0.52"/>
</g>
<path d="M23.4839 15.2053C22.5385 15.2053 21.6319 15.5809 20.9634 16.2493C20.295 16.9178 19.9194 17.8244 19.9194 18.7698V23.76C19.9194 24.7054 20.295 25.612 20.9634 26.2805C21.6319 26.9489 22.5385 27.3245 23.4839 27.3245C24.4292 27.3245 25.3359 26.9489 26.0043 26.2805C26.6728 25.612 27.0484 24.7054 27.0484 23.76V18.7698C27.0484 17.8244 26.6728 16.9178 26.0043 16.2493C25.3359 15.5809 24.4292 15.2053 23.4839 15.2053ZM17.7808 23.0471C17.9698 23.0471 18.1512 23.1222 18.2849 23.2559C18.4185 23.3896 18.4937 23.5709 18.4937 23.76C18.4937 25.0835 19.0194 26.3528 19.9553 27.2887C20.8911 28.2245 22.1604 28.7503 23.4839 28.7503C24.8074 28.7503 26.0767 28.2245 27.0125 27.2887C27.9484 26.3528 28.4741 25.0835 28.4741 23.76C28.4741 23.5709 28.5492 23.3896 28.6829 23.2559C28.8166 23.1222 28.998 23.0471 29.187 23.0471C29.3761 23.0471 29.5574 23.1222 29.6911 23.2559C29.8248 23.3896 29.8999 23.5709 29.8999 23.76C29.9002 25.3384 29.3187 26.8616 28.2665 28.0381C27.2144 29.2147 25.7654 29.9622 24.1968 30.1375V31.6018C24.1968 31.7909 24.1217 31.9722 23.988 32.1059C23.8543 32.2396 23.673 32.3147 23.4839 32.3147C23.2948 32.3147 23.1135 32.2396 22.9798 32.1059C22.8461 31.9722 22.771 31.7909 22.771 31.6018V30.1375C21.2024 29.9622 19.7534 29.2147 18.7013 28.0381C17.6491 26.8616 17.0676 25.3384 17.0679 23.76C17.0679 23.5709 17.143 23.3896 17.2767 23.2559C17.4104 23.1222 17.5917 23.0471 17.7808 23.0471Z" fill="white"/>
<defs>
<filter id="filter0_b_1407_518" x="-41.0839" y="-40.7436" width="128.117" height="128.117" filterUnits="userSpaceOnUse" color-interpolation-filters="sRGB">
<feFlood flood-opacity="0" result="BackgroundImageFix"/>
<feGaussianBlur in="BackgroundImageFix" stdDeviation="20.623"/>
<feComposite in2="SourceAlpha" operator="in" result="effect1_backgroundBlur_1407_518"/>
<feBlend mode="normal" in="SourceGraphic" in2="effect1_backgroundBlur_1407_518" result="shape"/>
</filter>
</defs>
</svg>
