<svg width="41" height="40" viewBox="0 0 41 40" fill="none" xmlns="http://www.w3.org/2000/svg">
<path d="M26.9065 5.45454H14.439C13.199 5.45454 12.0098 5.94292 11.1331 6.81223C10.2563 7.68155 9.76368 8.86059 9.76368 10.09V34.8123C9.76259 35.0846 9.83409 35.3523 9.97092 35.5884C10.1078 35.8245 10.3051 36.0205 10.5429 36.1566C10.7798 36.2922 11.0486 36.3636 11.3221 36.3636C11.5957 36.3636 11.8644 36.2922 12.1013 36.1566L20.6728 31.2431L29.2442 36.1566C29.4817 36.2901 29.7504 36.3594 30.0234 36.3575C30.2964 36.3594 30.5651 36.2901 30.8026 36.1566C31.0404 36.0205 31.2378 35.8245 31.3746 35.5884C31.5114 35.3523 31.5829 35.0846 31.5818 34.8123V10.09C31.5818 8.86059 31.0893 7.68155 30.2125 6.81223C29.3357 5.94292 28.1465 5.45454 26.9065 5.45454ZM28.465 32.1392L21.452 28.1219C21.2151 27.9862 20.9463 27.9148 20.6728 27.9148C20.3992 27.9148 20.1305 27.9862 19.8935 28.1219L12.8806 32.1392V10.09C12.8806 9.68019 13.0448 9.28717 13.337 8.9974C13.6293 8.70763 14.0257 8.54484 14.439 8.54484H26.9065C27.3198 8.54484 27.7162 8.70763 28.0085 8.9974C28.3008 9.28717 28.465 9.68019 28.465 10.09V32.1392Z" fill="black"/>
</svg>
