<svg width="40" height="40" viewBox="0 0 40 40" fill="none" xmlns="http://www.w3.org/2000/svg">
<g clip-path="url(#clip0_1292_298)">
<path d="M20 0C8.95312 0 0 8.95312 0 20C0 31.0469 8.95312 40 20 40C31.0469 40 40 31.0469 40 20C40 8.95312 31.0469 0 20 0ZM32.4844 32.4766C30.8594 34.1016 28.9766 35.375 26.875 36.2578C24.7031 37.1797 22.3906 37.6406 20 37.6406C17.6172 37.6406 15.3047 37.1719 13.125 36.2578C11.0234 35.3672 9.13281 34.0938 7.51562 32.4766C5.89062 30.8516 4.61719 28.9688 3.73438 26.8672C2.8125 24.6953 2.34375 22.3828 2.34375 20C2.34375 17.6172 2.8125 15.3047 3.72656 13.125C4.61719 11.0234 5.89062 9.13281 7.50781 7.51562C9.14062 5.89062 11.0234 4.61719 13.125 3.72656C15.3047 2.8125 17.6172 2.34375 20 2.34375C22.3828 2.34375 24.6953 2.8125 26.875 3.72656C28.9766 4.61719 30.8672 5.89063 32.4844 7.50781C34.1094 9.13281 35.3828 11.0156 36.2656 13.1172C37.1875 15.2891 37.6484 17.6016 37.6484 19.9922C37.6484 22.375 37.1797 24.6875 36.2656 26.8672C35.375 28.9688 34.1016 30.8594 32.4844 32.4766Z" fill="#085A87"/>
<path d="M26.1406 10H13.875C11.7422 10 10.0078 11.7344 10.0078 13.8672V17.9531V26.1406C10.0078 28.2734 11.7422 30.0078 13.875 30.0078H26.1406C28.2734 30.0078 30.0078 28.2734 30.0078 26.1406V17.9453V13.8594C30 11.7344 28.2656 10 26.1406 10ZM27.25 12.3047H27.6953V12.7422V15.6953L24.3125 15.7031L24.3047 12.3125L27.25 12.3047ZM17.1484 17.9453C17.7891 17.0625 18.8281 16.4766 20 16.4766C21.1719 16.4766 22.2109 17.0547 22.8516 17.9453C23.2734 18.5234 23.5156 19.2344 23.5156 20C23.5156 21.9375 21.9375 23.5234 19.9922 23.5234C18.0469 23.5234 16.4844 21.9375 16.4844 20C16.4844 19.2344 16.7344 18.5234 17.1484 17.9453ZM28.0547 26.1328C28.0547 27.1875 27.1953 28.0469 26.1406 28.0469H13.875C12.8203 28.0469 11.9609 27.1875 11.9609 26.1328V17.9453H14.9453C14.6875 18.5781 14.5391 19.2734 14.5391 20C14.5391 23.0156 16.9922 25.4688 20.0078 25.4688C23.0234 25.4688 25.4766 23.0156 25.4766 20C25.4766 19.2734 25.3281 18.5781 25.0703 17.9453H28.0547V26.1328Z" fill="#085A87"/>
</g>
<defs>
<clipPath id="clip0_1292_298">
<rect width="40" height="40" fill="white"/>
</clipPath>
</defs>
</svg>
