<svg width="22" height="22" viewBox="0 0 22 22" fill="none" xmlns="http://www.w3.org/2000/svg">
<path d="M14.4286 3H7.57143C6.88945 3 6.2354 3.26861 5.75316 3.74673C5.27092 4.22485 5.00001 4.87333 5.00001 5.54949V19.1468C4.99941 19.2965 5.03873 19.4438 5.11399 19.5736C5.18925 19.7035 5.29777 19.8113 5.42858 19.8861C5.55888 19.9607 5.70669 20 5.85715 20C6.00761 20 6.15542 19.9607 6.28572 19.8861L11 17.1837L15.7143 19.8861C15.8449 19.9596 15.9927 19.9977 16.1429 19.9966C16.293 19.9977 16.4408 19.9596 16.5714 19.8861C16.7022 19.8113 16.8108 19.7035 16.886 19.5736C16.9613 19.4438 17.0006 19.2965 17 19.1468V5.54949C17 4.87333 16.7291 4.22485 16.2468 3.74673C15.7646 3.26861 15.1106 3 14.4286 3ZM15.2857 17.6766L11.4286 15.467C11.2983 15.3924 11.1505 15.3532 11 15.3532C10.8495 15.3532 10.7017 15.3924 10.5714 15.467L6.71429 17.6766V5.54949C6.71429 5.3241 6.8046 5.10795 6.96534 4.94857C7.12609 4.7892 7.3441 4.69966 7.57143 4.69966H14.4286C14.6559 4.69966 14.8739 4.7892 15.0347 4.94857C15.1954 5.10795 15.2857 5.3241 15.2857 5.54949V17.6766Z" fill="black"/>
</svg>
