<svg width="40" height="40" viewBox="0 0 40 40" fill="none" xmlns="http://www.w3.org/2000/svg">
<g clip-path="url(#clip0_1292_302)">
<path d="M20 0C8.95312 0 0 8.95312 0 20C0 31.0469 8.95312 40 20 40C31.0469 40 40 31.0469 40 20C40 8.95312 31.0469 0 20 0ZM32.4844 32.4766C30.8594 34.1016 28.9766 35.375 26.875 36.2578C24.7031 37.1797 22.3906 37.6406 20 37.6406C17.6172 37.6406 15.3047 37.1719 13.125 36.2578C11.0234 35.3672 9.13281 34.0938 7.51562 32.4766C5.89062 30.8516 4.61719 28.9688 3.73438 26.8672C2.8125 24.6953 2.34375 22.3828 2.34375 20C2.34375 17.6172 2.8125 15.3047 3.72656 13.125C4.61719 11.0234 5.89062 9.13281 7.50781 7.51562C9.14062 5.89062 11.0234 4.61719 13.125 3.72656C15.3047 2.8125 17.6172 2.34375 20 2.34375C22.3828 2.34375 24.6953 2.8125 26.875 3.72656C28.9766 4.61719 30.8672 5.89063 32.4844 7.50781C34.1094 9.13281 35.3828 11.0156 36.2656 13.1172C37.1875 15.2891 37.6484 17.6016 37.6484 19.9922C37.6484 22.375 37.1797 24.6875 36.2656 26.8672C35.375 28.9688 34.1016 30.8594 32.4844 32.4766Z" fill="#085A87"/>
<path d="M29.4766 13.1328C28.6797 13.6016 27.8047 13.9453 26.8672 14.1328C26.1172 13.3359 25.0469 12.8359 23.8672 12.8359C21.6016 12.8359 19.7578 14.6797 19.7578 16.9453C19.7578 17.2656 19.7891 17.5781 19.8672 17.8828C16.4531 17.7109 13.4219 16.0781 11.3984 13.5859C11.0469 14.1953 10.8438 14.8984 10.8438 15.6563C10.8438 17.0781 11.5703 18.3359 12.6719 19.0781C12 19.0547 11.3672 18.8672 10.8125 18.5625V18.6094C10.8125 20.6016 12.2266 22.2656 14.1094 22.6406C13.7656 22.7344 13.3984 22.7891 13.0234 22.7891C12.7578 22.7891 12.5 22.7656 12.25 22.7188C12.7734 24.3516 14.2891 25.5391 16.0859 25.5703C14.6797 26.6719 12.9062 27.3281 10.9844 27.3281C10.6563 27.3281 10.3281 27.3125 10 27.2734C11.8203 28.4375 13.9766 29.1172 16.2969 29.1172C23.8594 29.1172 27.9922 22.8516 27.9922 17.4219C27.9922 17.2422 27.9922 17.0625 27.9844 16.8906C28.7891 16.3047 29.4844 15.5859 30.0312 14.7578C29.2969 15.0859 28.5 15.3047 27.6719 15.4063C28.5234 14.8984 29.1719 14.0938 29.4766 13.1328Z" fill="#085A87"/>
</g>
<defs>
<clipPath id="clip0_1292_302">
<rect width="40" height="40" fill="white"/>
</clipPath>
</defs>
</svg>
