<svg width="28" height="28" viewBox="0 0 28 28" fill="none" xmlns="http://www.w3.org/2000/svg">
<g clip-path="url(#clip0_1407_471)">
<path d="M19.9047 12.1107C21.099 12.1225 22.2411 12.6022 23.0857 13.4468C23.9303 14.2913 24.41 15.4334 24.4219 16.6278C24.437 17.8069 23.9468 18.9336 23.1495 19.7706C22.2893 20.6735 21.128 21.1292 19.9047 21.1449C18.114 21.1679 18.1118 23.9469 19.9047 23.9239C23.9128 23.8723 27.1493 20.6359 27.2009 16.6277C27.2524 12.6193 23.8351 9.38215 19.9047 9.33166C18.1118 9.30861 18.114 12.0877 19.9047 12.1107ZM8.05212 21.1283C6.85777 21.1165 5.71567 20.6368 4.87109 19.7922C4.02651 18.9476 3.54678 17.8055 3.53494 16.6112C3.51979 15.432 4.00991 14.3053 4.80734 13.4682C5.66747 12.5653 6.82876 12.1097 8.0521 12.094C9.84278 12.071 9.84498 9.29188 8.0521 9.31496C4.04392 9.36648 0.807461 12.6029 0.755946 16.6112C0.704431 20.6195 4.12164 23.8568 8.05212 23.9073C9.84501 23.9303 9.8428 21.1513 8.05212 21.1283Z" fill="#4A5699"/>
<path d="M9.48128 10.7544C9.49308 9.56007 9.97276 8.41797 10.8173 7.5734C11.6619 6.72882 12.804 6.24913 13.9983 6.23733C15.1775 6.22218 16.3042 6.71236 17.1412 7.50976C18.0441 8.36989 18.4997 9.53111 18.5155 10.7544C18.5385 12.5451 21.3176 12.5473 21.2945 10.7544C21.243 6.74631 18.0064 3.50985 13.9983 3.45834C9.98995 3.40682 6.75281 6.82392 6.70229 10.7544C6.67919 12.5473 9.45826 12.5451 9.48128 10.7544Z" fill="#C45FA0"/>
<path d="M14.8731 13.088C15.3074 13.5223 15.3074 14.2263 14.8731 14.6606L11.6464 17.8874C11.2121 18.3216 10.508 18.3216 10.0738 17.8874C9.63946 17.4529 9.63946 16.7488 10.0738 16.3146L13.3005 13.088C13.7347 12.6536 14.4388 12.6536 14.8731 13.088Z" fill="#F39A2B"/>
<path d="M13.3009 13.0879C13.7351 12.6536 14.4393 12.6536 14.8735 13.0879L18.1003 16.3147C18.5345 16.7488 18.5345 17.453 18.1003 17.8873C17.666 18.3216 16.9618 18.3216 16.5276 17.8873L13.3009 14.6607C12.8665 14.2263 12.8665 13.5222 13.3009 13.0879Z" fill="#F39A2B"/>
<path d="M14.0593 17.3157C14.6888 17.3157 15.1989 17.8259 15.1989 18.4552V23.131C15.1989 23.7604 14.6887 24.2705 14.0593 24.2705C13.4301 24.2705 12.9199 23.7603 12.9199 23.131V18.4552C12.9199 17.8259 13.4302 17.3157 14.0593 17.3157Z" fill="#E5594F"/>
</g>
<defs>
<clipPath id="clip0_1407_471">
<rect width="26.8864" height="26.8864" fill="white" transform="translate(0.5625 0.666626)"/>
</clipPath>
</defs>
</svg>
