<svg width="41" height="40" viewBox="0 0 41 40" fill="none" xmlns="http://www.w3.org/2000/svg">
<path d="M7.33919 13.3333H4.00586V33.3333C4.00586 35.1716 5.50086 36.6666 7.33919 36.6666H27.3392V33.3333H7.33919V13.3333Z" fill="white"/>
<path d="M34.0062 3.33331H14.0062C13.1221 3.33331 12.2743 3.6845 11.6492 4.30962C11.024 4.93474 10.6729 5.78259 10.6729 6.66665V26.6666C10.6729 27.5507 11.024 28.3985 11.6492 29.0237C12.2743 29.6488 13.1221 30 14.0062 30H34.0062C34.8902 30 35.7381 29.6488 36.3632 29.0237C36.9883 28.3985 37.3395 27.5507 37.3395 26.6666V6.66665C37.3395 5.78259 36.9883 4.93474 36.3632 4.30962C35.7381 3.6845 34.8902 3.33331 34.0062 3.33331ZM19.0062 23.3333V9.99998L30.6729 16.6666L19.0062 23.3333Z" fill="white"/>
</svg>
