<svg width="18" height="19" viewBox="0 0 18 19" fill="none" xmlns="http://www.w3.org/2000/svg">
<path d="M15.2363 0.700653H3.00181C1.55389 0.700653 0.380127 1.87442 0.380127 3.32233V15.5568C0.380127 17.0048 1.55389 18.1785 3.00181 18.1785H15.2363C16.6842 18.1785 17.858 17.0048 17.858 15.5568V3.32233C17.858 1.87442 16.6842 0.700653 15.2363 0.700653Z" fill="#1877F2"/>
<path d="M12.519 11.9654L12.9082 9.43926H10.4845V7.80071C10.4845 7.11115 10.8224 6.43525 11.908 6.43525H13.0106V4.28465C13.0106 4.28465 12.0104 4.11397 11.0546 4.11397C9.05758 4.11397 7.75357 5.3224 7.75357 7.51396V9.43926H5.5347V11.9654H7.75357V18.1782H10.4845V11.9654H12.519Z" fill="white"/>
</svg>
