<svg width="18" height="19" viewBox="0 0 18 19" fill="none" xmlns="http://www.w3.org/2000/svg">
<path d="M15.3217 0.700577H3.0872C1.63928 0.700577 0.465515 1.87434 0.465515 3.32226V15.5568C0.465515 17.0047 1.63928 18.1785 3.0872 18.1785H15.3217C16.7696 18.1785 17.9434 17.0047 17.9434 15.5568V3.32226C17.9434 1.87434 16.7696 0.700577 15.3217 0.700577Z" fill="black"/>
<path d="M15.3217 0.700577H3.0872C1.63928 0.700577 0.465515 1.87434 0.465515 3.32226V15.5568C0.465515 17.0047 1.63928 18.1785 3.0872 18.1785H15.3217C16.7696 18.1785 17.9434 17.0047 17.9434 15.5568V3.32226C17.9434 1.87434 16.7696 0.700577 15.3217 0.700577Z" fill="url(#paint0_radial_3_371)"/>
<path d="M15.3217 0.700577H3.0872C1.63928 0.700577 0.465515 1.87434 0.465515 3.32226V15.5568C0.465515 17.0047 1.63928 18.1785 3.0872 18.1785H15.3217C16.7696 18.1785 17.9434 17.0047 17.9434 15.5568V3.32226C17.9434 1.87434 16.7696 0.700577 15.3217 0.700577Z" fill="url(#paint1_linear_3_371)"/>
<path d="M11.6969 4.1823H6.71299C5.18589 4.1823 3.94794 5.42025 3.94794 6.94735V11.9313C3.94794 13.4584 5.18589 14.6963 6.71299 14.6963H11.6969C13.224 14.6963 14.462 13.4584 14.462 11.9313V6.94735C14.462 5.42025 13.224 4.1823 11.6969 4.1823Z" stroke="white" stroke-width="1.4877"/>
<path d="M9.20508 11.8966C10.5625 11.8966 11.6629 10.7962 11.6629 9.4388C11.6629 8.08138 10.5625 6.98097 9.20508 6.98097C7.84766 6.98097 6.74725 8.08138 6.74725 9.4388C6.74725 10.7962 7.84766 11.8966 9.20508 11.8966Z" stroke="white" stroke-width="1.4877"/>
<path d="M12.3111 6.53754C12.4243 6.53754 12.516 6.44584 12.516 6.33272C12.516 6.2196 12.4243 6.1279 12.3111 6.1279C12.198 6.1279 12.1063 6.2196 12.1063 6.33272C12.1063 6.44584 12.198 6.53754 12.3111 6.53754Z" stroke="white" stroke-width="1.4877"/>
<defs>
<radialGradient id="paint0_radial_3_371" cx="0" cy="0" r="1" gradientUnits="userSpaceOnUse" gradientTransform="translate(7.45667 18.1785) scale(17.4779)">
<stop offset="0.1" stop-color="#FFDD55"/>
<stop offset="0.5" stop-color="#FF543E"/>
<stop offset="1" stop-color="#C837AB"/>
</radialGradient>
<linearGradient id="paint1_linear_3_371" x1="0.465515" y1="0.700577" x2="3.96109" y2="18.1785" gradientUnits="userSpaceOnUse">
<stop offset="0.1" stop-color="#3771C8"/>
<stop offset="0.5" stop-color="#6600FF" stop-opacity="0"/>
</linearGradient>
</defs>
</svg>
