<svg width="17" height="17" viewBox="0 0 17 17" fill="none" xmlns="http://www.w3.org/2000/svg">
<path d="M15.7459 3.38596e-05H1.2541C0.925289 -0.00331247 0.608582 0.123917 0.373469 0.353805C0.138356 0.583693 0.00404255 0.897462 0 1.22626V15.7766C0.00477363 16.1049 0.139409 16.418 0.374442 16.6472C0.609475 16.8765 0.925766 17.0034 1.2541 17H15.7459C16.0747 17.0026 16.3912 16.875 16.6262 16.6449C16.8612 16.4149 16.9956 16.1012 17 15.7724V1.22208C16.9941 0.894246 16.8591 0.581973 16.6243 0.35314C16.3894 0.124307 16.0738 -0.00258883 15.7459 3.38596e-05Z" fill="#0076B2"/>
<path d="M2.51596 6.37222H5.03949V14.4918H2.51596V6.37222ZM3.77842 2.33124C4.06786 2.33124 4.35079 2.41708 4.59143 2.57791C4.83207 2.73874 5.0196 2.96733 5.1303 3.23477C5.241 3.5022 5.26989 3.79645 5.21332 4.0803C5.15675 4.36416 5.01727 4.62486 4.81251 4.82942C4.60775 5.03399 4.34692 5.17323 4.06301 5.22952C3.7791 5.28582 3.48487 5.25665 3.21755 5.14569C2.95022 5.03474 2.72181 4.84699 2.56121 4.6062C2.40061 4.36541 2.31503 4.08239 2.31531 3.79296C2.31568 3.40516 2.46999 3.03337 2.74434 2.75928C3.01868 2.4852 3.39062 2.33124 3.77842 2.33124Z" fill="white"/>
<path d="M6.62225 6.37245H9.04127V7.48721H9.07471C9.41193 6.84901 10.2341 6.17598 11.4617 6.17598C14.0173 6.1704 14.491 7.85229 14.491 10.033V14.492H11.9675V10.5416C11.9675 9.60106 11.9508 8.39016 10.6563 8.39016C9.36176 8.39016 9.1416 9.41573 9.1416 10.4803V14.492H6.62225V6.37245Z" fill="white"/>
</svg>
