<svg width="18" height="19" viewBox="0 0 18 19" fill="none" xmlns="http://www.w3.org/2000/svg">
<path d="M15.3646 0.700577H3.13004C1.68213 0.700577 0.508362 1.87434 0.508362 3.32226V15.5568C0.508362 17.0047 1.68213 18.1785 3.13004 18.1785H15.3646C16.8125 18.1785 17.9862 17.0047 17.9862 15.5568V3.32226C17.9862 1.87434 16.8125 0.700577 15.3646 0.700577Z" fill="#1DA1F2"/>
<path d="M15.4259 5.88901C15.0212 6.15745 14.5461 6.29999 14.0605 6.29865C14.5797 5.99279 14.9684 5.50686 15.1528 4.93319C14.7225 5.29702 14.1801 5.5019 13.6167 5.51351C13.2452 5.13303 12.7604 4.8833 12.2349 4.80178C11.7094 4.72026 11.1717 4.81135 10.7024 5.06139C10.2331 5.31142 9.85755 5.70692 9.6321 6.18851C9.40666 6.67011 9.34348 7.21183 9.45205 7.73238C8.496 7.6819 7.56126 7.43092 6.70851 6.99572C5.85576 6.56053 5.10408 5.95085 4.50226 5.20628C4.20777 5.73916 4.12154 6.36238 4.26029 6.95521C4.39903 7.54803 4.75287 8.06826 5.25326 8.41511C4.87562 8.42044 4.50182 8.33867 4.16089 8.17615C4.17008 8.72603 4.36341 9.25695 4.70998 9.68396C5.05654 10.111 5.53631 10.4094 6.07254 10.5316C5.71559 10.6248 5.34224 10.6365 4.98017 10.5657C5.13636 11.0528 5.44066 11.4791 5.85065 11.7851C6.26063 12.091 6.75587 12.2614 7.26731 12.2725C6.18715 12.9278 4.94634 13.2705 3.68298 13.2625C4.74105 13.9532 5.97007 14.3368 7.23321 14.3705C8.49635 14.4042 9.74406 14.0867 10.8374 13.4533C11.9308 12.8199 12.827 11.8955 13.4262 10.783C14.0253 9.6705 14.304 8.41355 14.2312 7.15206C14.6816 6.78368 15.0831 6.35922 15.4259 5.88901Z" fill="white"/>
</svg>
