<svg width="12" height="13" viewBox="0 0 12 13" fill="none" xmlns="http://www.w3.org/2000/svg">
<path d="M9.13296 8.40302C8.10804 8.01269 7.495 7.61278 7.495 7.61278L6.70715 10.108L6.59939 10.4457L6.24737 9.44232C7.05917 8.30963 6.18511 8.25695 6.03424 8.25455H6.03185H6.02945H6.02706H6.02466C5.8738 8.25455 4.99974 8.30963 5.81154 9.44232L5.45712 10.4433L5.34936 10.1056L4.56151 7.61039C4.56151 7.61039 3.94848 8.0103 2.92355 8.40063C1.79566 8.81012 1.8651 9.73926 1.84355 11.4778H5.81872H6.03424H10.2154C10.1914 9.73926 10.2609 8.81252 9.13296 8.40302Z" fill="black"/>
<path d="M4.25501 6.02738C4.34601 6.61408 4.79621 7.35882 5.54095 7.62224C5.84508 7.73 6.18033 7.73 6.48446 7.61984C7.21723 7.35643 7.68419 6.61408 7.77279 6.02738C7.87098 6.0202 8.00029 5.8813 8.13918 5.388C8.33075 4.7127 8.12721 4.61452 7.95479 4.63128C7.98832 4.53789 8.01226 4.44689 8.02902 4.3535C8.32118 2.60778 7.46149 2.54551 7.46149 2.54551C7.46149 2.54551 7.3202 2.27252 6.94423 2.06418C6.69279 1.91571 6.34317 1.79837 5.881 1.83908C5.73253 1.84627 5.59124 1.875 5.45714 1.9205C5.28712 1.97798 5.13146 2.06179 4.99018 2.15997C4.81776 2.27013 4.65492 2.40423 4.51124 2.55749C4.28374 2.78977 4.0802 3.0915 3.99159 3.46747C3.91736 3.74764 3.93412 4.0398 3.99638 4.35589C4.01315 4.44689 4.03709 4.54028 4.07062 4.63368C3.8982 4.61691 3.69705 4.71749 3.88623 5.3904C4.02751 5.88131 4.15683 6.0202 4.25501 6.02738Z" fill="black"/>
</svg>
