<svg width="23" height="22" viewBox="0 0 23 22" fill="none" xmlns="http://www.w3.org/2000/svg">
<path d="M1.60724 6.1875C1.60724 4.28902 3.19533 2.75 5.15434 2.75H17.9239C19.8829 2.75 21.471 4.28902 21.471 6.1875V13.0625C21.471 14.961 19.8829 16.5 17.9239 16.5H12.5151L8.16984 20.1846C7.2708 20.947 5.86376 20.3283 5.86376 19.1705V16.5H5.15434C3.19533 16.5 1.60724 14.961 1.60724 13.0625V6.1875ZM5.15434 4.125C3.97893 4.125 3.02608 5.04841 3.02608 6.1875V13.0625C3.02608 14.2016 3.97893 15.125 5.15434 15.125H7.2826V19.1099L11.982 15.125H17.9239C19.0993 15.125 20.0522 14.2016 20.0522 13.0625V6.1875C20.0522 5.04841 19.0993 4.125 17.9239 4.125H5.15434Z" fill="black"/>
</svg>
