<svg width="17" height="17" viewBox="0 0 17 17" fill="none" xmlns="http://www.w3.org/2000/svg">
<path d="M9.69129 7.4455C9.69129 7.07682 9.39243 6.77795 9.02373 6.77795H8.68995C6.6622 6.77795 5.01839 8.42174 5.01839 10.4495C5.01839 12.4773 6.6622 14.1211 8.68995 14.1211H12.0277C14.0555 14.1211 15.6993 12.4773 15.6993 10.4495C15.6993 8.78669 14.5939 7.382 13.0778 6.9303C12.7018 6.81828 12.3615 7.131 12.3615 7.52334V7.55785C12.3615 7.89003 12.6115 8.16213 12.9186 8.2889C13.7671 8.6391 14.3642 9.47454 14.3642 10.4495C14.3642 11.7399 13.3181 12.786 12.0277 12.786H8.68995C7.39957 12.786 6.3535 11.7399 6.3535 10.4495C6.3535 9.15912 7.39957 8.11306 8.68995 8.11306H9.02373C9.39243 8.11306 9.69129 7.81419 9.69129 7.4455Z" fill="black"/>
<path d="M8.02228 3.44006C10.0501 3.44006 11.6938 5.08388 11.6938 7.11163C11.6938 9.1394 10.0501 10.7832 8.02228 10.7832H7.6885C7.31981 10.7832 7.02094 10.4843 7.02094 10.1156C7.02094 9.74695 7.31981 9.44808 7.6885 9.44808H8.02228C9.31267 9.44808 10.3587 8.40202 10.3587 7.11163C10.3587 5.82124 9.31267 4.77518 8.02228 4.77518H4.68449C3.3941 4.77518 2.34804 5.82124 2.34804 7.11163C2.34804 8.0866 2.94518 8.92205 3.79366 9.27225C4.1007 9.39895 4.35071 9.67111 4.35071 10.0033V10.0378C4.35071 10.4301 4.01042 10.7429 3.63442 10.6309C2.11835 10.1791 1.01292 8.77445 1.01292 7.11163C1.01292 5.08388 2.65674 3.44006 4.68449 3.44006H8.02228Z" fill="black"/>
</svg>
