<svg width="15" height="16" viewBox="0 0 15 16" fill="none" xmlns="http://www.w3.org/2000/svg">
<path d="M11.3209 0.497834H4.03842C2.02846 0.497834 0.397194 2.12263 0.397194 4.12631V8.48339V9.212C0.397194 11.2157 2.02846 12.8405 4.03842 12.8405H5.13079C5.32741 12.8405 5.58958 12.9716 5.71338 13.1319L6.80575 14.5818C7.28639 15.223 8.07289 15.223 8.55354 14.5818L9.6459 13.1319C9.78427 12.9498 10.0027 12.8405 10.2285 12.8405H11.3209C13.3308 12.8405 14.9621 11.2157 14.9621 9.212V4.12631C14.9621 2.12263 13.3308 0.497834 11.3209 0.497834ZM4.76666 7.78393C4.35885 7.78393 4.03842 7.45605 4.03842 7.05532C4.03842 6.65458 4.36613 6.32671 4.76666 6.32671C5.1672 6.32671 5.49491 6.65458 5.49491 7.05532C5.49491 7.45605 5.17448 7.78393 4.76666 7.78393ZM7.67964 7.78393C7.27183 7.78393 6.9514 7.45605 6.9514 7.05532C6.9514 6.65458 7.27911 6.32671 7.67964 6.32671C8.08018 6.32671 8.40789 6.65458 8.40789 7.05532C8.40789 7.45605 8.08746 7.78393 7.67964 7.78393ZM10.5926 7.78393C10.1848 7.78393 9.86438 7.45605 9.86438 7.05532C9.86438 6.65458 10.1921 6.32671 10.5926 6.32671C10.9932 6.32671 11.3209 6.65458 11.3209 7.05532C11.3209 7.45605 11.0004 7.78393 10.5926 7.78393Z" fill="black"/>
</svg>
