<svg width="12" height="12" viewBox="0 0 12 12" fill="none" xmlns="http://www.w3.org/2000/svg">
<path fill-rule="evenodd" clip-rule="evenodd" d="M4.58433 0.66819C5.23857 -0.194654 6.53572 -0.194654 7.18998 0.66819L7.7347 1.38661L8.62792 1.2638C9.70062 1.1163 10.6179 2.03352 10.4704 3.10627L10.3475 3.99945L11.066 4.5442C11.9288 5.19844 11.9288 6.49559 11.066 7.14985L10.3475 7.69457L10.4704 8.58779C10.6179 9.66049 9.70062 10.5777 8.62792 10.4302L7.7347 10.3074L7.18998 11.0259C6.53572 11.8887 5.23857 11.8887 4.58433 11.0259L4.03958 10.3074L3.1464 10.4302C2.07365 10.5777 1.15643 9.66049 1.30393 8.58779L1.42674 7.69457L0.708321 7.14985C-0.154523 6.49559 -0.154523 5.19844 0.708321 4.5442L1.42674 3.99945L1.30393 3.10627C1.15643 2.03352 2.07365 1.1163 3.1464 1.2638L4.03958 1.38661L4.58433 0.66819ZM8.17243 5.21932C8.36206 5.02973 8.36206 4.72232 8.17243 4.53272C7.98284 4.34313 7.67542 4.34313 7.48584 4.53272L5.40165 6.61692L4.77397 5.98922C4.58437 5.79963 4.27697 5.79963 4.08737 5.98922C3.89778 6.1788 3.89778 6.48622 4.08737 6.67581L5.05835 7.6468C5.24794 7.83639 5.55536 7.83639 5.74494 7.6468L8.17243 5.21932Z" fill="#00A6FF"/>
<rect x="2.9742" y="2.93411" width="5.82596" height="5.82596" fill="#00A6FF"/>
<path d="M8.76829 4.00246C7.15006 5.48751 5.89143 7.53195 5.50518 8.51754C5.49852 8.54418 5.46523 8.57082 5.43193 8.57082C5.42527 8.57748 5.42527 8.57748 5.41861 8.57748C5.39197 8.57748 5.36533 8.57082 5.35202 8.55084L2.97461 6.13348C2.95463 6.1135 3.67384 5.47419 3.70714 5.50083L5.01239 6.52638C5.5185 5.92703 6.77047 4.57517 8.50858 3.51633C8.54187 3.51633 8.79493 3.89591 8.79493 3.89591C8.80825 3.92921 8.79493 3.97583 8.76829 4.00246Z" fill="white"/>
</svg>
