<svg width="20" height="18" viewBox="0 0 20 18" fill="none" xmlns="http://www.w3.org/2000/svg">
<path fill-rule="evenodd" clip-rule="evenodd" d="M10.6247 1.41238C11.4609 0.183789 13.1189 0.183789 13.9551 1.41238L14.6513 2.43533L15.793 2.26046C17.164 2.05045 18.3364 3.35646 18.1479 4.88393L17.9909 6.15574L18.9092 6.93139C20.012 7.86296 20.012 9.70996 18.9092 10.6415L17.9909 11.4172L18.1479 12.689C18.3364 14.2164 17.164 15.5225 15.793 15.3125L14.6513 15.1376L13.9551 16.1606C13.1189 17.3891 11.4609 17.3891 10.6247 16.1606L9.92844 15.1376L8.78683 15.3125C7.41571 15.5225 6.24338 14.2164 6.4319 12.689L6.58887 11.4172L5.67063 10.6415C4.5678 9.70996 4.5678 7.86296 5.67063 6.93139L6.58887 6.15574L6.4319 4.88393C6.24338 3.35646 7.41571 2.05045 8.78683 2.26047L9.92844 2.43533L10.6247 1.41238ZM15.2108 7.89269C15.4532 7.62274 15.4532 7.18502 15.2108 6.91505C14.9685 6.64509 14.5755 6.64509 14.3332 6.91505L11.6694 9.88271L10.8671 8.98894C10.6248 8.71899 10.2319 8.71899 9.98952 8.98894C9.74719 9.25889 9.74719 9.69662 9.98952 9.96657L11.2306 11.3492C11.4729 11.6191 11.8658 11.6191 12.1081 11.3492L15.2108 7.89269Z" fill="#FFCD04"/>
<rect x="0.5" y="0.499993" width="7" height="7" fill="#FFCD04"/>
<path d="M15.9723 6.16038C13.904 8.27493 12.2953 11.186 11.8016 12.5894C11.7931 12.6273 11.7505 12.6652 11.708 12.6652C11.6995 12.6747 11.6995 12.6747 11.6909 12.6747C11.6569 12.6747 11.6229 12.6652 11.6058 12.6368L8.56717 9.19471C8.54164 9.16626 9.4609 8.25596 9.50345 8.29389L11.1717 9.75416C11.8186 8.90076 13.4188 6.97586 15.6403 5.46817C15.6829 5.46817 16.0063 6.00866 16.0063 6.00866C16.0234 6.05608 16.0063 6.12245 15.9723 6.16038Z" fill="#085A87"/>
</svg>
