<svg width="13" height="13" viewBox="0 0 13 13" fill="none" xmlns="http://www.w3.org/2000/svg">
<g clip-path="url(#clip0_3_353)">
<path d="M6.49776 0.81366C4.08473 0.81366 2.1283 2.77009 2.1283 5.18313C2.1283 6.13331 2.4398 7.0052 2.95758 7.71924C2.96687 7.73635 2.96833 7.75547 2.97889 7.77186L5.89187 12.1413C6.02695 12.344 6.25453 12.4656 6.49776 12.4656C6.741 12.4656 6.96858 12.344 7.10366 12.1413L10.0166 7.77186C10.0274 7.75547 10.0287 7.73635 10.0379 7.71924C10.5557 7.0052 10.8672 6.13331 10.8672 5.18313C10.8672 2.77009 8.9108 0.81366 6.49776 0.81366ZM6.49776 6.63962C5.69342 6.63962 5.04128 5.98747 5.04128 5.18313C5.04128 4.37878 5.69342 3.72664 6.49776 3.72664C7.30211 3.72664 7.95425 4.37878 7.95425 5.18313C7.95425 5.98747 7.30211 6.63962 6.49776 6.63962Z" fill="#231F20"/>
</g>
<defs>
<clipPath id="clip0_3_353">
<rect width="11.6519" height="11.6519" fill="white" transform="translate(0.671936 0.813629)"/>
</clipPath>
</defs>
</svg>
