<svg width="23" height="22" viewBox="0 0 23 22" fill="none" xmlns="http://www.w3.org/2000/svg">
<path d="M15.1872 3H8.1114C7.40767 3 6.73276 3.26861 6.23515 3.74673C5.73754 4.22485 5.45798 4.87333 5.45798 5.54949V19.1468C5.45737 19.2965 5.49794 19.4438 5.5756 19.5736C5.65326 19.7035 5.76525 19.8113 5.90022 19.8861C6.03468 19.9607 6.1872 20 6.34246 20C6.49771 20 6.65023 19.9607 6.78469 19.8861L11.6493 17.1837L16.5139 19.8861C16.6487 19.9596 16.8012 19.9977 16.9561 19.9966C17.111 19.9977 17.2635 19.9596 17.3983 19.8861C17.5333 19.8113 17.6453 19.7035 17.723 19.5736C17.8006 19.4438 17.8412 19.2965 17.8406 19.1468V5.54949C17.8406 4.87333 17.561 4.22485 17.0634 3.74673C16.5658 3.26861 15.8909 3 15.1872 3ZM16.0716 17.6766L12.0915 15.467C11.9571 15.3924 11.8045 15.3532 11.6493 15.3532C11.494 15.3532 11.3415 15.3924 11.207 15.467L7.22693 17.6766V5.54949C7.22693 5.3241 7.32011 5.10795 7.48598 4.94857C7.65185 4.7892 7.87682 4.69966 8.1114 4.69966H15.1872C15.4217 4.69966 15.6467 4.7892 15.8126 4.94857C15.9785 5.10795 16.0716 5.3241 16.0716 5.54949V17.6766Z" fill="black"/>
</svg>
