<svg width="17" height="17" viewBox="0 0 17 17" fill="none" xmlns="http://www.w3.org/2000/svg">
<path d="M7.2513 9.44795C9.09471 9.44795 10.5891 7.95357 10.5891 6.11016C10.5891 4.26675 9.09471 2.77237 7.2513 2.77237C5.40789 2.77237 3.91351 4.26675 3.91351 6.11016C3.91351 7.95357 5.40789 9.44795 7.2513 9.44795Z" fill="white"/>
<path d="M13.2594 7.4454V11.4507" stroke="white" stroke-width="1.09237" stroke-linecap="round"/>
<path d="M15.2621 9.44813H11.2567" stroke="white" stroke-width="1.09237" stroke-linecap="round"/>
<path d="M12.0191 14.3764C12.3273 14.3067 12.5121 13.9863 12.3755 13.7014C12.0072 12.933 11.4018 12.2578 10.6171 11.7489C9.65156 11.1227 8.46845 10.7833 7.25136 10.7833C6.03428 10.7833 4.85119 11.1227 3.88561 11.7489C3.10093 12.2578 2.49553 12.933 2.12716 13.7014C1.99057 13.9863 2.17541 14.3067 2.48357 14.3764C5.62236 15.0873 8.88033 15.0873 12.0191 14.3764Z" fill="white"/>
</svg>
