<svg width="18" height="19" viewBox="0 0 18 19" fill="none" xmlns="http://www.w3.org/2000/svg">
<path d="M15.3215 0.700684H3.08701C1.6391 0.700684 0.465332 1.87445 0.465332 3.32237V15.5569C0.465332 17.0048 1.6391 18.1786 3.08701 18.1786H15.3215C16.7694 18.1786 17.9432 17.0048 17.9432 15.5569V3.32237C17.9432 1.87445 16.7694 0.700684 15.3215 0.700684Z" fill="black"/>
<path d="M15.3215 0.700684H3.08701C1.6391 0.700684 0.465332 1.87445 0.465332 3.32237V15.5569C0.465332 17.0048 1.6391 18.1786 3.08701 18.1786H15.3215C16.7694 18.1786 17.9432 17.0048 17.9432 15.5569V3.32237C17.9432 1.87445 16.7694 0.700684 15.3215 0.700684Z" fill="url(#paint0_radial_1407_724)"/>
<path d="M15.3215 0.700684H3.08701C1.6391 0.700684 0.465332 1.87445 0.465332 3.32237V15.5569C0.465332 17.0048 1.6391 18.1786 3.08701 18.1786H15.3215C16.7694 18.1786 17.9432 17.0048 17.9432 15.5569V3.32237C17.9432 1.87445 16.7694 0.700684 15.3215 0.700684Z" fill="url(#paint1_linear_1407_724)"/>
<path d="M11.6967 4.18262H6.71281C5.18571 4.18262 3.94775 5.42057 3.94775 6.94767V11.9316C3.94775 13.4587 5.18571 14.6967 6.71281 14.6967H11.6967C13.2238 14.6967 14.4618 13.4587 14.4618 11.9316V6.94767C14.4618 5.42057 13.2238 4.18262 11.6967 4.18262Z" stroke="white" stroke-width="1.4877"/>
<path d="M9.2049 11.8971C10.5623 11.8971 11.6627 10.7967 11.6627 9.43927C11.6627 8.08185 10.5623 6.98145 9.2049 6.98145C7.84748 6.98145 6.74707 8.08185 6.74707 9.43927C6.74707 10.7967 7.84748 11.8971 9.2049 11.8971Z" stroke="white" stroke-width="1.4877"/>
<path d="M12.3108 6.53806C12.4239 6.53806 12.5156 6.44636 12.5156 6.33324C12.5156 6.22012 12.4239 6.12842 12.3108 6.12842C12.1977 6.12842 12.106 6.22012 12.106 6.33324C12.106 6.44636 12.1977 6.53806 12.3108 6.53806Z" stroke="white" stroke-width="1.4877"/>
<defs>
<radialGradient id="paint0_radial_1407_724" cx="0" cy="0" r="1" gradientUnits="userSpaceOnUse" gradientTransform="translate(7.45648 18.1786) scale(17.4779)">
<stop offset="0.1" stop-color="#FFDD55"/>
<stop offset="0.5" stop-color="#FF543E"/>
<stop offset="1" stop-color="#C837AB"/>
</radialGradient>
<linearGradient id="paint1_linear_1407_724" x1="0.465332" y1="0.700684" x2="3.96091" y2="18.1786" gradientUnits="userSpaceOnUse">
<stop offset="0.1" stop-color="#3771C8"/>
<stop offset="0.5" stop-color="#6600FF" stop-opacity="0"/>
</linearGradient>
</defs>
</svg>
