<svg width="17" height="17" viewBox="0 0 17 17" fill="none" xmlns="http://www.w3.org/2000/svg">
<path d="M15.7459 6.43772e-05H1.2541C0.925289 -0.00328195 0.608582 0.123948 0.373469 0.353836C0.138356 0.583724 0.00404255 0.897493 0 1.22629V15.7766C0.00477363 16.1049 0.139409 16.418 0.374442 16.6473C0.609475 16.8766 0.925766 17.0034 1.2541 17.0001H15.7459C16.0747 17.0027 16.3912 16.875 16.6262 16.645C16.8612 16.4149 16.9956 16.1013 17 15.7724V1.22211C16.9941 0.894276 16.8591 0.582003 16.6243 0.353171C16.3894 0.124338 16.0738 -0.00255831 15.7459 6.43772e-05Z" fill="#0076B2"/>
<path d="M2.51609 6.37204H5.03961V14.4916H2.51609V6.37204ZM3.77855 2.33105C4.06798 2.33105 4.35091 2.4169 4.59155 2.57773C4.83219 2.73856 5.01972 2.96715 5.13042 3.23458C5.24112 3.50201 5.27001 3.79627 5.21344 4.08012C5.15688 4.36398 5.01739 4.62468 4.81263 4.82924C4.60787 5.03381 4.34704 5.17304 4.06313 5.22934C3.77922 5.28564 3.48499 5.25646 3.21767 5.14551C2.95034 5.03456 2.72193 4.84681 2.56133 4.60602C2.40073 4.36523 2.31515 4.08221 2.31543 3.79278C2.3158 3.40498 2.47011 3.03318 2.74446 2.7591C3.01881 2.48501 3.39074 2.33105 3.77855 2.33105Z" fill="white"/>
<path d="M6.62256 6.37227H9.04157V7.48702H9.07502C9.41223 6.84883 10.2344 6.1758 11.462 6.1758C14.0176 6.17022 14.4913 7.85211 14.4913 10.0328V14.4919H11.9678V10.5415C11.9678 9.60088 11.9511 8.38998 10.6566 8.38998C9.36207 8.38998 9.1419 9.41555 9.1419 10.4801V14.4919H6.62256V6.37227Z" fill="white"/>
</svg>
