<svg width="18" height="19" viewBox="0 0 18 19" fill="none" xmlns="http://www.w3.org/2000/svg">
<path d="M15.2361 0.700684H3.00156C1.55365 0.700684 0.379883 1.87445 0.379883 3.32237V15.5569C0.379883 17.0048 1.55365 18.1786 3.00156 18.1786H15.2361C16.684 18.1786 17.8578 17.0048 17.8578 15.5569V3.32237C17.8578 1.87445 16.684 0.700684 15.2361 0.700684Z" fill="#1877F2"/>
<path d="M12.519 11.9652L12.9081 9.43906H10.4845V7.80051C10.4845 7.11095 10.8224 6.43505 11.9079 6.43505H13.0106V4.28445C13.0106 4.28445 12.0104 4.11377 11.0545 4.11377C9.05755 4.11377 7.75354 5.3222 7.75354 7.51376V9.43906H5.53467V11.9652H7.75354V18.178H10.4845V11.9652H12.519Z" fill="white"/>
</svg>
