<svg width="18" height="19" viewBox="0 0 18 19" fill="none" xmlns="http://www.w3.org/2000/svg">
<path d="M15.3645 0.700684H3.12998C1.68207 0.700684 0.508301 1.87445 0.508301 3.32237V15.5569C0.508301 17.0048 1.68207 18.1786 3.12998 18.1786H15.3645C16.8124 18.1786 17.9862 17.0048 17.9862 15.5569V3.32237C17.9862 1.87445 16.8124 0.700684 15.3645 0.700684Z" fill="#1DA1F2"/>
<path d="M15.4261 5.88924C15.0214 6.15768 14.5462 6.30022 14.0606 6.29887C14.5798 5.99302 14.9685 5.50709 15.153 4.93342C14.7226 5.29725 14.1803 5.50213 13.6168 5.51374C13.2453 5.13326 12.7605 4.88353 12.235 4.80201C11.7095 4.72049 11.1718 4.81158 10.7025 5.06162C10.2332 5.31165 9.85767 5.70714 9.63222 6.18874C9.40678 6.67034 9.3436 7.21206 9.45217 7.73261C8.49612 7.68213 7.56138 7.43115 6.70863 6.99595C5.85588 6.56076 5.1042 5.95108 4.50238 5.20651C4.20789 5.73939 4.12166 6.36261 4.26041 6.95544C4.39916 7.54826 4.753 8.06849 5.25338 8.41534C4.87574 8.42067 4.50194 8.3389 4.16102 8.17638C4.1702 8.72626 4.36353 9.25717 4.7101 9.68419C5.05667 10.1112 5.53644 10.4097 6.07266 10.5318C5.71571 10.625 5.34236 10.6367 4.98029 10.5659C5.13648 11.0531 5.44078 11.4793 5.85077 11.7853C6.26075 12.0913 6.75599 12.2617 7.26744 12.2728C6.18727 12.928 4.94646 13.2707 3.68311 13.2627C4.74118 13.9535 5.97019 14.337 7.23333 14.3707C8.49647 14.4044 9.74418 14.0869 10.8376 13.4535C11.9309 12.8201 12.8271 11.8957 13.4263 10.7832C14.0254 9.67073 14.3041 8.41378 14.2313 7.15229C14.6817 6.78391 15.0832 6.35945 15.4261 5.88924Z" fill="white"/>
</svg>
