<svg width="2459" height="1158" viewBox="0 0 2459 1158" fill="none" xmlns="http://www.w3.org/2000/svg">
<g opacity="0.3" filter="url(#filter0_f_1286_1698)">
<path d="M1811.81 907.779C2075.15 906.613 2249.01 782.749 2200.14 631.12C2151.27 479.492 1898.17 357.517 1634.83 358.683C1371.49 359.849 1197.62 483.713 1246.5 635.342C1295.37 786.971 1548.47 908.945 1811.81 907.779Z" fill="url(#paint0_linear_1286_1698)" fill-opacity="0.3"/>
<path d="M730.336 695.325C1011.63 735.482 1253.5 671.192 1270.55 551.729C1287.61 432.266 1073.39 302.868 792.095 262.711C510.796 222.554 268.933 286.844 251.879 406.307C234.825 525.77 449.038 655.168 730.336 695.325Z" fill="url(#paint1_linear_1286_1698)" fill-opacity="0.3"/>
</g>
<defs>
<filter id="filter0_f_1286_1698" x="0.927734" y="0.755066" width="2457.44" height="1157.03" filterUnits="userSpaceOnUse" color-interpolation-filters="sRGB">
<feFlood flood-opacity="0" result="BackgroundImageFix"/>
<feBlend mode="normal" in="SourceGraphic" in2="BackgroundImageFix" result="shape"/>
<feGaussianBlur stdDeviation="125" result="effect1_foregroundBlur_1286_1698"/>
</filter>
<linearGradient id="paint0_linear_1286_1698" x1="2170.15" y1="637.676" x2="1311.6" y2="380.057" gradientUnits="userSpaceOnUse">
<stop stop-color="#001AFF"/>
<stop offset="1" stop-color="#6EE5C2"/>
</linearGradient>
<linearGradient id="paint1_linear_1286_1698" x1="315.455" y1="454.84" x2="984.221" y2="179.652" gradientUnits="userSpaceOnUse">
<stop stop-color="#FFC83A"/>
<stop offset="0.504191" stop-color="#FF008A"/>
<stop offset="1" stop-color="#6100FF"/>
</linearGradient>
</defs>
</svg>
