<svg width="16" height="16" viewBox="0 0 16 16" fill="none" xmlns="http://www.w3.org/2000/svg">
<path d="M12.1429 10.4214C10.7355 9.88544 9.89367 9.3363 9.89367 9.3363L8.81182 12.7627L8.66385 13.2263L8.18047 11.8486C9.2952 10.2932 8.09497 10.2208 7.88781 10.2176H7.88452H7.88123H7.87794H7.87466C7.66749 10.2176 6.46727 10.2932 7.582 11.8486L7.09533 13.2231L6.94736 12.7594L5.86551 9.33301C5.86551 9.33301 5.02371 9.88215 3.61632 10.4181C2.06753 10.9804 2.1629 12.2563 2.1333 14.6436H7.59186H7.88781H13.6292C13.5963 12.2563 13.6916 10.9837 12.1429 10.4214Z" fill="black"/>
<path d="M5.44472 7.1594C5.56967 7.96503 6.18787 8.98769 7.21053 9.3494C7.62814 9.49737 8.0885 9.49737 8.50611 9.34611C9.51233 8.9844 10.1535 7.96503 10.2752 7.1594C10.41 7.14953 10.5876 6.95881 10.7783 6.28142C11.0414 5.35413 10.7619 5.21931 10.5251 5.24232C10.5712 5.11408 10.604 4.98912 10.6271 4.86088C11.0282 2.46372 9.84774 2.37822 9.84774 2.37822C9.84774 2.37822 9.65373 2.00336 9.13747 1.71728C8.7922 1.5134 8.31211 1.35228 7.67747 1.40818C7.47359 1.41804 7.27958 1.4575 7.09544 1.51998C6.86197 1.5989 6.64823 1.71399 6.45422 1.84881C6.21746 2.00007 5.99386 2.18421 5.79656 2.39466C5.48418 2.71363 5.20467 3.12795 5.083 3.64421C4.98107 4.02894 5.00408 4.43012 5.08958 4.86417C5.1126 4.98912 5.14548 5.11737 5.19152 5.24561C4.95476 5.22259 4.67854 5.3607 4.93832 6.28471C5.13233 6.95881 5.3099 7.14953 5.44472 7.1594Z" fill="black"/>
</svg>
