<svg width="22" height="22" viewBox="0 0 22 22" fill="none" xmlns="http://www.w3.org/2000/svg">
<path d="M1.375 6.1875C1.375 4.28902 2.91402 2.75 4.8125 2.75H17.1875C19.086 2.75 20.625 4.28902 20.625 6.1875V13.0625C20.625 14.961 19.086 16.5 17.1875 16.5H11.9458L7.73483 20.1846C6.86356 20.947 5.5 20.3283 5.5 19.1705V16.5H4.8125C2.91402 16.5 1.375 14.961 1.375 13.0625V6.1875ZM4.8125 4.125C3.67341 4.125 2.75 5.04841 2.75 6.1875V13.0625C2.75 14.2016 3.67341 15.125 4.8125 15.125H6.875V19.1099L11.4292 15.125H17.1875C18.3265 15.125 19.25 14.2016 19.25 13.0625V6.1875C19.25 5.04841 18.3265 4.125 17.1875 4.125H4.8125Z" fill="black"/>
</svg>
