<svg width="41" height="40" viewBox="0 0 41 40" fill="none" xmlns="http://www.w3.org/2000/svg">
<path d="M3.17285 11.25C3.17285 7.79822 5.97108 5 9.42285 5H31.9229C35.3746 5 38.1729 7.79822 38.1729 11.25V23.75C38.1729 27.2017 35.3746 30 31.9229 30H22.3925L14.7362 36.6992C13.1521 38.0855 10.6729 36.9605 10.6729 34.8555V30H9.42285C5.97108 30 3.17285 27.2017 3.17285 23.75V11.25ZM9.42285 7.5C7.35178 7.5 5.67285 9.17893 5.67285 11.25V23.75C5.67285 25.821 7.35178 27.5 9.42285 27.5H13.1729V34.7453L21.4532 27.5H31.9229C33.9939 27.5 35.6729 25.821 35.6729 23.75V11.25C35.6729 9.17893 33.9939 7.5 31.9229 7.5H9.42285Z" fill="black"/>
</svg>
