<svg width="17" height="17" viewBox="0 0 17 17" fill="none" xmlns="http://www.w3.org/2000/svg">
<path d="M9.69097 7.4449C9.69097 7.07622 9.39211 6.77734 9.02341 6.77734H8.68963C6.66188 6.77734 5.01807 8.42114 5.01807 10.4489C5.01807 12.4767 6.66188 14.1205 8.68963 14.1205H12.0274C14.0552 14.1205 15.699 12.4767 15.699 10.4489C15.699 8.78609 14.5936 7.3814 13.0775 6.9297C12.7015 6.81768 12.3612 7.1304 12.3612 7.52274V7.55725C12.3612 7.88943 12.6112 8.16152 12.9183 8.28829C13.7667 8.63849 14.3639 9.47394 14.3639 10.4489C14.3639 11.7393 13.3178 12.7854 12.0274 12.7854H8.68963C7.39925 12.7854 6.35318 11.7393 6.35318 10.4489C6.35318 9.15852 7.39925 8.11246 8.68963 8.11246H9.02341C9.39211 8.11246 9.69097 7.81359 9.69097 7.4449Z" fill="black"/>
<path d="M8.02205 3.43945C10.0498 3.43945 11.6936 5.08327 11.6936 7.11102C11.6936 9.13879 10.0498 10.7826 8.02205 10.7826H7.68827C7.31958 10.7826 7.02072 10.4837 7.02072 10.115C7.02072 9.74634 7.31958 9.44747 7.68827 9.44747H8.02205C9.31244 9.44747 10.3585 8.40141 10.3585 7.11102C10.3585 5.82063 9.31244 4.77457 8.02205 4.77457H4.68426C3.39387 4.77457 2.34781 5.82063 2.34781 7.11102C2.34781 8.08599 2.94495 8.92144 3.79343 9.27164C4.10047 9.39834 4.35048 9.6705 4.35048 10.0027V10.0372C4.35048 10.4295 4.01019 10.7423 3.63419 10.6303C2.11812 10.1785 1.0127 8.77384 1.0127 7.11102C1.0127 5.08327 2.65651 3.43945 4.68426 3.43945H8.02205Z" fill="black"/>
</svg>
