<svg width="12" height="12" viewBox="0 0 12 12" fill="none" xmlns="http://www.w3.org/2000/svg">
<path fill-rule="evenodd" clip-rule="evenodd" d="M4.58417 0.668617C5.23842 -0.194227 6.53557 -0.194227 7.18982 0.668617L7.73455 1.38704L8.62777 1.26422C9.70047 1.11673 10.6177 2.03395 10.4702 3.10669L10.3474 3.99988L11.0658 4.54462C11.9287 5.19887 11.9287 6.49602 11.0658 7.15027L10.3474 7.695L10.4702 8.58822C10.6177 9.66092 9.70047 10.5782 8.62777 10.4307L7.73455 10.3078L7.18982 11.0263C6.53557 11.8891 5.23842 11.8891 4.58417 11.0263L4.03943 10.3078L3.14624 10.4307C2.0735 10.5782 1.15628 9.66092 1.30378 8.58822L1.42659 7.695L0.708168 7.15027C-0.154676 6.49602 -0.154676 5.19887 0.708168 4.54462L1.42659 3.99988L1.30378 3.10669C1.15628 2.03395 2.0735 1.11673 3.14624 1.26423L4.03943 1.38704L4.58417 0.668617ZM8.17227 5.21974C8.36191 5.03016 8.36191 4.72275 8.17227 4.53315C7.98269 4.34355 7.67527 4.34355 7.48568 4.53315L5.4015 6.61734L4.77382 5.98964C4.58422 5.80006 4.27682 5.80006 4.08722 5.98964C3.89762 6.17923 3.89762 6.48665 4.08722 6.67623L5.0582 7.64723C5.24779 7.83681 5.5552 7.83681 5.74479 7.64723L8.17227 5.21974Z" fill="#00A6FF"/>
<rect x="2.97412" y="2.93457" width="5.82596" height="5.82596" fill="#00A6FF"/>
<path d="M8.76822 4.00274C7.14998 5.48779 5.89135 7.53223 5.50511 8.51782C5.49845 8.54446 5.46515 8.57109 5.43185 8.57109C5.42519 8.57775 5.42519 8.57775 5.41853 8.57775C5.3919 8.57775 5.36526 8.57109 5.35194 8.55112L2.97453 6.13375C2.95455 6.11377 3.67377 5.47447 3.70706 5.50111L5.01231 6.52666C5.51842 5.92731 6.77039 4.57545 8.5085 3.5166C8.5418 3.5166 8.79485 3.89619 8.79485 3.89619C8.80817 3.92948 8.79485 3.9761 8.76822 4.00274Z" fill="white"/>
</svg>
