<svg width="47" height="47" viewBox="0 0 47 47" fill="none" xmlns="http://www.w3.org/2000/svg">
<g filter="url(#filter0_b_1407_522)">
<circle cx="23.4326" cy="23.7625" r="22.8125" fill="black" fill-opacity="0.52"/>
</g>
<path d="M17.9392 30.4159C17.6303 30.4159 17.36 30.3 17.1283 30.0683C16.8966 29.8366 16.7808 29.5663 16.7808 29.2574V19.2175C16.7808 18.9086 16.8966 18.6383 17.1283 18.4066C17.36 18.1749 17.6303 18.0591 17.9392 18.0591H27.9791C28.288 18.0591 28.5583 18.1749 28.79 18.4066C29.0217 18.6383 29.1375 18.9086 29.1375 19.2175V23.3686L32.2267 20.2794V28.1955L29.1375 25.1063V29.2574C29.1375 29.5663 29.0217 29.8366 28.79 30.0683C28.5583 30.3 28.288 30.4159 27.9791 30.4159H17.9392Z" fill="white"/>
<defs>
<filter id="filter0_b_1407_522" x="-40.6259" y="-40.2961" width="128.117" height="128.117" filterUnits="userSpaceOnUse" color-interpolation-filters="sRGB">
<feFlood flood-opacity="0" result="BackgroundImageFix"/>
<feGaussianBlur in="BackgroundImageFix" stdDeviation="20.623"/>
<feComposite in2="SourceAlpha" operator="in" result="effect1_backgroundBlur_1407_522"/>
<feBlend mode="normal" in="SourceGraphic" in2="effect1_backgroundBlur_1407_522" result="shape"/>
</filter>
</defs>
</svg>
