<svg width="20" height="18" viewBox="0 0 20 18" fill="none" xmlns="http://www.w3.org/2000/svg">
<path fill-rule="evenodd" clip-rule="evenodd" d="M10.6245 1.41217C11.4607 0.183574 13.1186 0.183574 13.9548 1.41217L14.6511 2.43512L15.7927 2.26025C17.1638 2.05023 18.3362 3.35624 18.1476 4.88372L17.9906 6.15552L18.9089 6.93117C20.0117 7.86275 20.0117 9.70974 18.9089 10.6413L17.9906 11.417L18.1476 12.6888C18.3362 14.2162 17.1638 15.5223 15.7927 15.3123L14.6511 15.1374L13.9548 16.1603C13.1186 17.3889 11.4607 17.3889 10.6245 16.1603L9.9282 15.1374L8.78658 15.3123C7.41546 15.5223 6.24314 14.2162 6.43165 12.6888L6.58862 11.417L5.67039 10.6413C4.56755 9.70974 4.56755 7.86275 5.67039 6.93117L6.58862 6.15552L6.43166 4.88372C6.24314 3.35624 7.41546 2.05023 8.78658 2.26025L9.9282 2.43512L10.6245 1.41217ZM15.2105 7.89247C15.4529 7.62252 15.4529 7.18481 15.2105 6.91484C14.9682 6.64487 14.5753 6.64487 14.333 6.91484L11.6691 9.8825L10.8668 8.98872C10.6245 8.71877 10.2316 8.71877 9.98928 8.98872C9.74695 9.25867 9.74695 9.6964 9.98928 9.96635L11.2303 11.3489C11.4726 11.6189 11.8656 11.6189 12.1079 11.3489L15.2105 7.89247Z" fill="#FFCD04"/>
<rect x="0.5" y="0.5" width="7" height="7" fill="#FFCD04"/>
<path d="M15.9725 6.15998C13.9042 8.27452 12.2955 11.1856 11.8018 12.589C11.7933 12.6269 11.7508 12.6648 11.7082 12.6648C11.6997 12.6743 11.6997 12.6743 11.6912 12.6743C11.6571 12.6743 11.6231 12.6648 11.6061 12.6364L8.56742 9.1943C8.54188 9.16586 9.46114 8.25556 9.5037 8.29349L11.172 9.75376C11.8189 8.90035 13.4191 6.97545 15.6406 5.46777C15.6832 5.46777 16.0066 6.00826 16.0066 6.00826C16.0236 6.05567 16.0066 6.12205 15.9725 6.15998Z" fill="#085A87"/>
</svg>
