<svg width="20" height="18" viewBox="0 0 20 18" fill="none" xmlns="http://www.w3.org/2000/svg">
<path fill-rule="evenodd" clip-rule="evenodd" d="M8.05908 0.999698C9.15062 -0.333232 11.3148 -0.333232 12.4063 0.999698L13.3152 2.10952L14.8054 1.9198C16.5951 1.69195 18.1254 3.10887 17.8793 4.76606L17.6744 6.14587L18.873 6.98739C20.3126 7.99807 20.3126 10.0019 18.873 11.0126L17.6744 11.8541L17.8793 13.234C18.1254 14.8911 16.5951 16.3081 14.8054 16.0802L13.3152 15.8905L12.4063 17.0003C11.3148 18.3332 9.15062 18.3332 8.05908 17.0003L7.15023 15.8905L5.66004 16.0802C3.87028 16.3081 2.34 14.8911 2.58608 13.234L2.79097 11.8541L1.59237 11.0126C0.152804 10.0019 0.152804 7.99807 1.59237 6.98739L2.79097 6.14587L2.58608 4.76606C2.34 3.10887 3.87028 1.69195 5.66004 1.91981L7.15023 2.10952L8.05908 0.999698ZM14.0454 8.03032C14.3618 7.73745 14.3618 7.26256 14.0454 6.96967C13.7291 6.67678 13.2162 6.67678 12.8999 6.96967L9.4227 10.1894L8.37548 9.21968C8.05915 8.9268 7.54629 8.9268 7.22996 9.21968C6.91364 9.51255 6.91364 9.98745 7.22996 10.2803L8.84994 11.7803C9.16625 12.0732 9.67914 12.0732 9.99545 11.7803L14.0454 8.03032Z" fill="#00A6FF"/>
<rect x="5.9126" y="5" width="10.8" height="10" fill="#00A6FF"/>
<path d="M14.5053 6.66755C12.1055 8.70676 10.2389 11.5141 9.66609 12.8675C9.65622 12.9041 9.60684 12.9407 9.55746 12.9407C9.54758 12.9498 9.54758 12.9498 9.5377 12.9498C9.4982 12.9498 9.4587 12.9407 9.43894 12.9132L5.9132 9.59378C5.88358 9.56634 6.95019 8.68847 6.99957 8.72505L8.93527 10.1333C9.68584 9.3103 11.5425 7.45397 14.1202 6C14.1696 6 14.5448 6.52123 14.5448 6.52123C14.5646 6.56696 14.5448 6.63097 14.5053 6.66755Z" fill="white"/>
</svg>
