<svg width="46" height="47" viewBox="0 0 46 47" fill="none" xmlns="http://www.w3.org/2000/svg">
<g filter="url(#filter0_b_1407_525)">
<circle cx="22.8125" cy="23.7625" r="22.8125" fill="black" fill-opacity="0.52"/>
</g>
<path d="M24.4896 17.3574C24.4894 17.2054 24.4463 17.0565 24.3652 16.9278C24.2842 16.7992 24.1685 16.696 24.0314 16.6302C23.8944 16.5644 23.7415 16.5385 23.5904 16.5557C23.4394 16.5728 23.2962 16.6323 23.1774 16.7271L19.3587 19.7814H15.6015C15.3872 19.7814 15.1817 19.8666 15.0301 20.0181C14.8786 20.1696 14.7935 20.3752 14.7935 20.5894V27.0535C14.7935 27.2678 14.8786 27.4734 15.0301 27.6249C15.1817 27.7764 15.3872 27.8616 15.6015 27.8616H19.3587L23.1774 30.9158C23.2962 31.0107 23.4394 31.0701 23.5904 31.0873C23.7415 31.1045 23.8944 31.0786 24.0314 31.0128C24.1685 30.947 24.2842 30.8438 24.3652 30.7152C24.4463 30.5865 24.4894 30.4376 24.4896 30.2856V17.3574ZM29.3781 23.8215C29.3793 24.7767 29.1918 25.7227 28.8263 26.6051C28.4608 27.4876 27.9244 28.2891 27.2482 28.9637L26.1056 27.8212C26.6316 27.2965 27.0487 26.673 27.333 25.9866C27.6173 25.3002 27.7631 24.5644 27.7621 23.8215C27.763 23.0786 27.6171 22.3428 27.3329 21.6564C27.0486 20.97 26.6316 20.3466 26.1056 19.8218L27.2482 18.6793C27.9244 19.3538 28.4608 20.1554 28.8263 21.0379C29.1918 21.9203 29.3793 22.8663 29.3781 23.8215Z" fill="white"/>
<defs>
<filter id="filter0_b_1407_525" x="-41.246" y="-40.2961" width="128.117" height="128.117" filterUnits="userSpaceOnUse" color-interpolation-filters="sRGB">
<feFlood flood-opacity="0" result="BackgroundImageFix"/>
<feGaussianBlur in="BackgroundImageFix" stdDeviation="20.623"/>
<feComposite in2="SourceAlpha" operator="in" result="effect1_backgroundBlur_1407_525"/>
<feBlend mode="normal" in="SourceGraphic" in2="effect1_backgroundBlur_1407_525" result="shape"/>
</filter>
</defs>
</svg>
