<svg width="46" height="46" viewBox="0 0 46 46" fill="none" xmlns="http://www.w3.org/2000/svg">
<g filter="url(#filter0_b_1407_529)">
<circle cx="23.1875" cy="23.0296" r="22.8125" fill="black" fill-opacity="0.52"/>
</g>
<path d="M30.44 20.6801L28.8013 17.8418C28.6076 17.5069 28.3323 17.2264 28.0011 17.0263C27.6699 16.8262 27.2935 16.713 26.9069 16.6973C26.5203 16.6816 26.136 16.7638 25.7896 16.9364C25.4433 17.1089 25.1462 17.3662 24.9258 17.6843L23.5048 15.2229C23.3061 14.8785 23.0213 14.5917 22.6783 14.3906C22.3354 14.1895 21.946 14.081 21.5485 14.0757C21.1509 14.0705 20.7588 14.1687 20.4107 14.3607C20.0625 14.5526 19.7702 14.8318 19.5625 15.1708C19.1569 14.8043 18.6338 14.5947 18.0873 14.5797C17.5409 14.5647 17.007 14.7453 16.5819 15.089C16.1568 15.4326 15.8683 15.9168 15.7684 16.4542C15.6686 16.9917 15.7639 17.5471 16.0372 18.0205L16.312 18.4965C15.9262 18.5275 15.5544 18.6556 15.2315 18.869C14.9085 19.0823 14.6448 19.374 14.4649 19.7167C14.285 20.0594 14.1948 20.4421 14.2026 20.8291C14.2105 21.2161 14.3161 21.5948 14.5098 21.93L17.9511 27.8906C18.4246 28.7106 19.0549 29.4294 19.8061 30.0058C20.5574 30.5823 21.4148 31.0051 22.3294 31.2501C23.244 31.4952 24.1979 31.5577 25.1367 31.4341C26.0755 31.3105 26.9808 31.0033 27.8008 30.5298C28.6208 30.0564 29.3396 29.426 29.916 28.6748C30.4924 27.9236 30.9153 27.0662 31.1603 26.1516C31.4054 25.2369 31.4679 24.283 31.3443 23.3442C31.2207 22.4054 30.9134 21.5002 30.44 20.6801ZM29.894 25.8123C29.592 26.9393 28.9626 27.9515 28.0854 28.7208C27.2081 29.4902 26.1224 29.9821 24.9656 30.1344C23.8088 30.2867 22.6328 30.0925 21.5863 29.5765C20.5398 29.0604 19.6699 28.2456 19.0865 27.2351L15.6451 21.2745C15.515 21.0487 15.4798 20.7805 15.5474 20.5287C15.6149 20.277 15.7797 20.0624 16.0054 19.9321C16.2311 19.8017 16.4993 19.7664 16.7511 19.8337C17.0029 19.9011 17.2176 20.0656 17.3481 20.2913L19.1508 23.4135C19.1645 23.4369 19.1796 23.4594 19.1961 23.481C19.2006 23.4869 19.2054 23.4926 19.21 23.4984C19.2227 23.514 19.2359 23.5289 19.2497 23.5431C19.2549 23.5483 19.2598 23.5537 19.2651 23.5587C19.2836 23.5767 19.3032 23.5936 19.3238 23.6093C19.3249 23.6101 19.3261 23.6108 19.3272 23.6116C19.3467 23.626 19.367 23.6393 19.388 23.6514C19.3945 23.6552 19.401 23.6586 19.4076 23.6621C19.4246 23.6713 19.4419 23.6797 19.4596 23.6872C19.4659 23.6899 19.4721 23.6928 19.4785 23.6953C19.5021 23.7048 19.5263 23.7128 19.5509 23.7194C19.5527 23.7199 19.5546 23.7202 19.5564 23.7206C19.5793 23.7264 19.6024 23.7309 19.6258 23.7342C19.6328 23.7352 19.6399 23.7359 19.647 23.7367C19.6666 23.7389 19.6864 23.7402 19.7062 23.7406C19.7105 23.7406 19.7148 23.7414 19.7191 23.7414C19.7212 23.7414 19.7233 23.741 19.7254 23.741C19.7509 23.7408 19.7764 23.7392 19.8017 23.7361C19.8036 23.7358 19.8056 23.7353 19.8076 23.7351C19.8308 23.7318 19.8539 23.7273 19.8767 23.7215C19.884 23.7197 19.8913 23.7175 19.8986 23.7154C19.917 23.7102 19.9352 23.704 19.9533 23.697C19.9604 23.6943 19.9676 23.6917 19.9746 23.6887C20.0603 23.6528 20.1374 23.5991 20.2007 23.531C20.2639 23.4629 20.3119 23.3821 20.3414 23.294C20.3709 23.2059 20.3813 23.1125 20.3717 23.02C20.3622 22.9276 20.333 22.8383 20.2861 22.758L18.4835 19.6357L18.4833 19.6353L17.1725 17.365C17.0424 17.1392 17.0072 16.8709 17.0748 16.6192C17.1424 16.3675 17.3071 16.1529 17.5328 16.0226C17.7586 15.8923 18.0268 15.8569 18.2786 15.9243C18.5303 15.9916 18.7451 16.1562 18.8756 16.3818L19.5297 17.5148L19.531 17.5172L21.6614 21.2071C21.7044 21.2816 21.7617 21.347 21.83 21.3994C21.8983 21.4518 21.9762 21.4902 22.0594 21.5125C22.1425 21.5348 22.2293 21.5405 22.3146 21.5292C22.3999 21.518 22.4822 21.4901 22.5568 21.447C22.6313 21.404 22.6967 21.3467 22.7491 21.2784C22.8015 21.2101 22.8399 21.1321 22.8622 21.049C22.8845 20.9659 22.8902 20.8791 22.8789 20.7938C22.8677 20.7084 22.8398 20.6261 22.7967 20.5516L20.6664 16.8617C20.6019 16.7498 20.56 16.6264 20.5431 16.4984C20.5263 16.3703 20.5348 16.2403 20.5682 16.1155C20.6016 15.9908 20.6593 15.8739 20.7379 15.7715C20.8165 15.669 20.9145 15.5831 21.0264 15.5185C21.1382 15.4539 21.2616 15.412 21.3896 15.3952C21.5177 15.3783 21.6477 15.3869 21.7725 15.4203C21.8972 15.4537 22.0141 15.5114 22.1166 15.59C22.219 15.6686 22.305 15.7666 22.3695 15.8784L24.8274 20.1357L24.8276 20.136L25.3462 21.0343C24.6302 21.6271 24.1472 22.4541 23.9826 23.3689C23.8181 24.2837 23.9827 25.2273 24.4473 26.0323C24.4903 26.1069 24.5476 26.1722 24.6159 26.2246C24.6842 26.277 24.7622 26.3155 24.8453 26.3377C24.9285 26.36 25.0152 26.3657 25.1005 26.3544C25.1859 26.3432 25.2682 26.3153 25.3427 26.2722C25.4172 26.2292 25.4826 26.1719 25.535 26.1036C25.5874 26.0353 25.6258 25.9574 25.6481 25.8742C25.6704 25.7911 25.676 25.7044 25.6648 25.619C25.6536 25.5337 25.6256 25.4514 25.5826 25.3768C25.2349 24.7746 25.1407 24.0589 25.3207 23.3872C25.5007 22.7155 25.9401 22.1428 26.5424 21.7951C26.5613 21.7842 26.5796 21.7724 26.5973 21.7596C26.612 21.749 26.6259 21.7376 26.6395 21.726C26.6421 21.7238 26.645 21.7219 26.6475 21.7196C26.6632 21.7059 26.6779 21.6915 26.692 21.6765L26.6933 21.6752C26.7075 21.6601 26.7208 21.6444 26.7333 21.6281L26.7347 21.6264C26.7466 21.6109 26.7575 21.5949 26.7679 21.5786C26.769 21.5768 26.7702 21.5752 26.7713 21.5735C26.7806 21.5585 26.7889 21.5431 26.797 21.5275C26.7988 21.524 26.8008 21.5207 26.8026 21.5172C26.8098 21.5025 26.816 21.4875 26.822 21.4724C26.824 21.4676 26.8263 21.463 26.8282 21.4581C26.8348 21.4405 26.8404 21.4226 26.8455 21.4045C26.8461 21.402 26.8471 21.3996 26.8478 21.3971C26.8485 21.3947 26.8488 21.3922 26.8494 21.3898C26.8541 21.3715 26.8582 21.3531 26.8613 21.3345C26.8623 21.3288 26.8625 21.3231 26.8633 21.3173C26.8655 21.3018 26.8676 21.2863 26.8687 21.2707C26.869 21.2659 26.8688 21.2612 26.869 21.2564C26.8697 21.2397 26.8703 21.2231 26.8698 21.2064C26.8697 21.2032 26.8692 21.2 26.8691 21.1968C26.8682 21.1787 26.8669 21.1605 26.8646 21.1423C26.8643 21.1403 26.8638 21.1382 26.8635 21.1362C26.8608 21.1172 26.8575 21.0982 26.8532 21.0793C26.8526 21.0771 26.8518 21.0749 26.8513 21.0726C26.8468 21.0542 26.8418 21.036 26.8357 21.0179C26.8339 21.0125 26.8315 21.0074 26.8295 21.0021C26.8241 20.9873 26.8187 20.9726 26.8122 20.958C26.8032 20.9381 26.7932 20.9186 26.7823 20.8997L25.9629 19.4805C25.8328 19.2547 25.7976 18.9864 25.8652 18.7347C25.9328 18.483 26.0975 18.2684 26.3233 18.1381C26.549 18.0077 26.8172 17.9724 27.069 18.0397C27.3207 18.1071 27.5355 18.2717 27.666 18.4973L29.3047 21.3356C29.6941 22.0058 29.9466 22.7465 30.0478 23.5149C30.1489 24.2834 30.0967 25.0642 29.894 25.8123ZM19.5804 32.1983C19.5314 32.2691 19.4689 32.3295 19.3965 32.376C19.3241 32.4226 19.2433 32.4545 19.1586 32.4699C19.0739 32.4852 18.987 32.4837 18.9028 32.4654C18.8187 32.4472 18.739 32.4125 18.6683 32.3635C17.4767 31.5387 16.484 30.4586 15.7625 29.2018C15.6756 29.0513 15.652 28.8723 15.697 28.7044C15.742 28.5365 15.8519 28.3933 16.0024 28.3064C16.153 28.2195 16.3319 28.1959 16.4998 28.2409C16.6677 28.2859 16.8109 28.3958 16.8978 28.5463C17.5229 29.6354 18.3829 30.5713 19.4153 31.2861C19.5582 31.3852 19.6558 31.5369 19.6868 31.708C19.7178 31.8791 19.6795 32.0555 19.5804 32.1983ZM26.1626 14.6991C26.1628 14.5253 26.2319 14.3588 26.3548 14.236C26.4777 14.1132 26.6444 14.0442 26.8181 14.0442H26.8188C27.6812 14.0462 28.5281 14.2742 29.2749 14.7056C30.0217 15.137 30.6424 15.7566 31.0751 16.5027C31.1182 16.5772 31.1462 16.6595 31.1574 16.7449C31.1687 16.8303 31.1631 16.917 31.1408 17.0002C31.1185 17.0834 31.0801 17.1614 31.0277 17.2297C30.9752 17.298 30.9099 17.3554 30.8353 17.3984C30.7607 17.4415 30.6784 17.4694 30.593 17.4807C30.5076 17.4919 30.4209 17.4862 30.3377 17.4639C30.2545 17.4415 30.1766 17.4031 30.1083 17.3506C30.04 17.2982 29.9827 17.2328 29.9397 17.1582C29.6222 16.6109 29.1669 16.1565 28.6191 15.8402C28.0713 15.5238 27.4501 15.3566 26.8175 15.3552C26.6436 15.355 26.477 15.2858 26.3542 15.1628C26.2314 15.0397 26.1625 14.8729 26.1626 14.6991Z" fill="white"/>
<defs>
<filter id="filter0_b_1407_529" x="-40.871" y="-41.029" width="128.117" height="128.117" filterUnits="userSpaceOnUse" color-interpolation-filters="sRGB">
<feFlood flood-opacity="0" result="BackgroundImageFix"/>
<feGaussianBlur in="BackgroundImageFix" stdDeviation="20.623"/>
<feComposite in2="SourceAlpha" operator="in" result="effect1_backgroundBlur_1407_529"/>
<feBlend mode="normal" in="SourceGraphic" in2="effect1_backgroundBlur_1407_529" result="shape"/>
</filter>
</defs>
</svg>
