<svg width="13" height="13" viewBox="0 0 13 13" fill="none" xmlns="http://www.w3.org/2000/svg">
<g clip-path="url(#clip0_1407_706)">
<path d="M6.49789 0.813965C4.08485 0.813965 2.12842 2.77039 2.12842 5.18343C2.12842 6.13361 2.43992 7.0055 2.95771 7.71955C2.96699 7.73666 2.96845 7.75578 2.97901 7.77216L5.89199 12.1416C6.02708 12.3443 6.25465 12.4659 6.49789 12.4659C6.74112 12.4659 6.9687 12.3443 7.10379 12.1416L10.0168 7.77216C10.0275 7.75578 10.0288 7.73666 10.0381 7.71955C10.5558 7.0055 10.8674 6.13361 10.8674 5.18343C10.8674 2.77039 8.91093 0.813965 6.49789 0.813965ZM6.49789 6.63992C5.69354 6.63992 5.0414 5.98778 5.0414 5.18343C5.0414 4.37909 5.69354 3.72694 6.49789 3.72694C7.30223 3.72694 7.95438 4.37909 7.95438 5.18343C7.95438 5.98778 7.30223 6.63992 6.49789 6.63992Z" fill="#231F20"/>
</g>
<defs>
<clipPath id="clip0_1407_706">
<rect width="11.6519" height="11.6519" fill="white" transform="translate(0.671875 0.813965)"/>
</clipPath>
</defs>
</svg>
