<svg width="41" height="40" viewBox="0 0 41 40" fill="none" xmlns="http://www.w3.org/2000/svg">
<path d="M34.8394 7.68167C33.9269 6.57766 32.781 5.68977 31.4841 5.08196C30.1872 4.47415 28.7716 4.16154 27.3394 4.16667C24.8888 4.09247 22.5029 4.96032 20.6727 6.59167C18.8425 4.96032 16.4567 4.09247 14.0061 4.16667C12.5738 4.16154 11.1582 4.47415 9.86134 5.08196C8.56444 5.68977 7.41849 6.57766 6.50605 7.68167C4.91772 9.60834 3.25605 13.0967 4.35772 18.7817C6.11605 27.86 19.3011 35.31 19.8577 35.615C20.1059 35.7534 20.3853 35.826 20.6694 35.826C20.9535 35.826 21.2329 35.7534 21.4811 35.615C22.0411 35.3033 35.2261 27.8533 36.9811 18.7817C38.0894 13.0967 36.4277 9.60834 34.8394 7.68167ZM17.7389 20.833C16.4956 27.2513 25.7887 7.2629 23.0253 8.95956C19.132 6.60956 21.506 19.1663 21.2137 18.1483C23.0253 22.4997 27.0394 30.5397 28.1727 29.1663C28.7721 28.4432 30.0639 6.59167 11.288 8.10042C12.1386 7.70219 7.23348 17.4968 8.17271 17.4997C9.17586 17.4244 17.2628 21.2373 18.1727 21.6663C19.0826 22.0954 18.6176 9.12646 19.1977 9.94834C19.3408 10.2116 19.5518 10.4316 19.8088 10.5855C20.0658 10.7395 20.6727 33.333 20.659 10.8235C20.9586 10.8254 21.2531 10.7469 21.5121 10.5962C21.771 10.4455 21.9847 10.2281 22.1311 9.96667C22.71 9.1384 15.5927 17.9322 16.506 17.4997C17.4194 17.0671 22.0177 16.5895 23.0253 16.6663C23.9665 16.6618 23.9866 8.56128 24.8394 8.95956C21.3187 9.64234 16.398 17.4237 16.9986 18.1483C18.1286 19.5217 18.5939 16.423 17.7389 20.833Z" fill="#FF0000"/>
</svg>
