<svg width="24" height="24" viewBox="0 0 24 24" fill="none" xmlns="http://www.w3.org/2000/svg">
<g clip-path="url(#clip0_1286_3181)">
<path fill-rule="evenodd" clip-rule="evenodd" d="M-0.752801 4.61291C-1.10937 5.31426 -1.10938 6.23191 -1.10938 8.06722V15.9328C-1.10938 17.7681 -1.10937 18.6858 -0.752801 19.3871C-0.438315 20.0036 0.0632621 20.5047 0.680048 20.8187C1.3814 21.1765 2.29905 21.1765 4.13436 21.1765H19.8655C21.7009 21.1765 22.6185 21.1765 23.3199 20.8187C23.9362 20.5045 24.4372 20.0034 24.7514 19.3871C25.1093 18.6858 25.1093 17.7681 25.1093 15.9328V8.06722C25.1093 6.23191 25.1093 5.31426 24.7514 4.61291C24.4375 3.99612 23.9364 3.49455 23.3199 3.18006C22.6185 2.82349 21.7009 2.82349 19.8655 2.82349H4.13436C2.29905 2.82349 1.3814 2.82349 0.680048 3.18006C0.0630624 3.49432 -0.438538 3.99592 -0.752801 4.61291ZM2.36066 5.44535H21.6392C21.78 5.44518 21.917 5.49031 22.0301 5.57408C22.1432 5.65784 22.2264 5.77578 22.2673 5.91046C22.3081 6.04514 22.3046 6.18939 22.2571 6.32189C22.2096 6.45439 22.1208 6.56808 22.0037 6.64617L12.7288 12.8495C12.5131 12.9938 12.2595 13.0708 12 13.0708C11.7404 13.0708 11.4868 12.9938 11.2711 12.8495L1.99622 6.64617C1.87913 6.56808 1.79027 6.45439 1.7428 6.32189C1.69533 6.18939 1.69177 6.04514 1.73264 5.91046C1.77352 5.77578 1.85665 5.65784 1.96976 5.57408C2.08286 5.49031 2.21992 5.44518 2.36066 5.44535Z" fill="#085A87"/>
</g>
<defs>
<clipPath id="clip0_1286_3181">
<rect width="24" height="24" fill="white"/>
</clipPath>
</defs>
</svg>
