<svg width="18" height="18" viewBox="0 0 18 18" fill="none" xmlns="http://www.w3.org/2000/svg">
<path d="M9 12.75C9.82845 12.75 10.5 13.4216 10.5 14.25C10.5 15.0784 9.82845 15.75 9 15.75C8.17155 15.75 7.5 15.0784 7.5 14.25C7.5 13.4216 8.17155 12.75 9 12.75Z" fill="black"/>
<path d="M9 7.5C9.82845 7.5 10.5 8.17155 10.5 9C10.5 9.82845 9.82845 10.5 9 10.5C8.17155 10.5 7.5 9.82845 7.5 9C7.5 8.17155 8.17155 7.5 9 7.5Z" fill="black"/>
<path d="M9 2.25C9.82845 2.25 10.5 2.92155 10.5 3.75C10.5 4.57845 9.82845 5.25 9 5.25C8.17155 5.25 7.5 4.57845 7.5 3.75C7.5 2.92155 8.17155 2.25 9 2.25Z" fill="black"/>
</svg>
