<svg width="27" height="24" viewBox="0 0 27 24" fill="none" xmlns="http://www.w3.org/2000/svg">
<path d="M14.1532 5C14.1532 4.44772 13.6696 4 13.0732 4C12.4767 4 11.9932 4.44772 11.9932 5C11.9932 5.55228 12.4767 6 13.0732 6C13.6696 6 14.1532 5.55228 14.1532 5Z" stroke="white" stroke-width="2" stroke-linecap="round" stroke-linejoin="round"/>
<path d="M14.1532 12C14.1532 11.4477 13.6696 11 13.0732 11C12.4767 11 11.9932 11.4477 11.9932 12C11.9932 12.5523 12.4767 13 13.0732 13C13.6696 13 14.1532 12.5523 14.1532 12Z" stroke="white" stroke-width="2" stroke-linecap="round" stroke-linejoin="round"/>
<path d="M14.1532 19C14.1532 18.4477 13.6696 18 13.0732 18C12.4767 18 11.9932 18.4477 11.9932 19C11.9932 19.5523 12.4767 20 13.0732 20C13.6696 20 14.1532 19.5523 14.1532 19Z" stroke="white" stroke-width="2" stroke-linecap="round" stroke-linejoin="round"/>
</svg>
