<svg width="22" height="22" viewBox="0 0 22 22" fill="none" xmlns="http://www.w3.org/2000/svg">
<path d="M17.4168 2.75H4.5835C3.85415 2.75 3.15468 3.03973 2.63895 3.55546C2.12323 4.07118 1.8335 4.77065 1.8335 5.5V19.25C1.83378 19.4124 1.87721 19.5719 1.95935 19.712C2.0415 19.8521 2.1594 19.9679 2.301 20.0475C2.438 20.1251 2.59269 20.1662 2.75016 20.1667C2.91469 20.1666 3.07617 20.1223 3.21766 20.0383L7.3335 17.545C7.48563 17.4544 7.66074 17.4099 7.83766 17.4167H17.4168C18.1462 17.4167 18.8456 17.1269 19.3614 16.6112C19.8771 16.0955 20.1668 15.396 20.1668 14.6667V5.5C20.1668 4.77065 19.8771 4.07118 19.3614 3.55546C18.8456 3.03973 18.1462 2.75 17.4168 2.75ZM7.3335 11C7.1522 11 6.97497 10.9462 6.82422 10.8455C6.67348 10.7448 6.55599 10.6016 6.48661 10.4341C6.41723 10.2666 6.39907 10.0823 6.43444 9.9045C6.46981 9.72668 6.55712 9.56335 6.68532 9.43515C6.81351 9.30695 6.97685 9.21965 7.15466 9.18428C7.33248 9.14891 7.51679 9.16706 7.68429 9.23644C7.85179 9.30582 7.99495 9.42332 8.09568 9.57406C8.1964 9.7248 8.25016 9.90203 8.25016 10.0833C8.25016 10.3264 8.15359 10.5596 7.98168 10.7315C7.80977 10.9034 7.57661 11 7.3335 11ZM11.0002 11C10.8189 11 10.6416 10.9462 10.4909 10.8455C10.3401 10.7448 10.2227 10.6016 10.1533 10.4341C10.0839 10.2666 10.0657 10.0823 10.1011 9.9045C10.1365 9.72668 10.2238 9.56335 10.352 9.43515C10.4802 9.30695 10.6435 9.21965 10.8213 9.18428C10.9991 9.14891 11.1835 9.16706 11.351 9.23644C11.5185 9.30582 11.6616 9.42332 11.7623 9.57406C11.8631 9.7248 11.9168 9.90203 11.9168 10.0833C11.9168 10.3264 11.8203 10.5596 11.6483 10.7315C11.4764 10.9034 11.2433 11 11.0002 11ZM14.6668 11C14.4855 11 14.3083 10.9462 14.1576 10.8455C14.0068 10.7448 13.8893 10.6016 13.8199 10.4341C13.7506 10.2666 13.7324 10.0823 13.7678 9.9045C13.8031 9.72668 13.8905 9.56335 14.0186 9.43515C14.1468 9.30695 14.3102 9.21965 14.488 9.18428C14.6658 9.14891 14.8501 9.16706 15.0176 9.23644C15.1851 9.30582 15.3283 9.42332 15.429 9.57406C15.5297 9.7248 15.5835 9.90203 15.5835 10.0833C15.5835 10.3264 15.4869 10.5596 15.315 10.7315C15.1431 10.9034 14.9099 11 14.6668 11Z" fill="black"/>
</svg>
