<svg width="23" height="22" viewBox="0 0 23 22" fill="none" xmlns="http://www.w3.org/2000/svg">
<path d="M15.1867 3H8.11094C7.40721 3 6.7323 3.26861 6.23469 3.74673C5.73708 4.22485 5.45753 4.87333 5.45753 5.54949V19.1468C5.45691 19.2965 5.49748 19.4438 5.57514 19.5736C5.6528 19.7035 5.76479 19.8113 5.89976 19.8861C6.03422 19.9607 6.18674 20 6.342 20C6.49725 20 6.64978 19.9607 6.78423 19.8861L11.6488 17.1837L16.5134 19.8861C16.6482 19.9596 16.8007 19.9977 16.9556 19.9966C17.1106 19.9977 17.2631 19.9596 17.3979 19.8861C17.5329 19.8113 17.6448 19.7035 17.7225 19.5736C17.8002 19.4438 17.8407 19.2965 17.8401 19.1468V5.54949C17.8401 4.87333 17.5606 4.22485 17.063 3.74673C16.5653 3.26861 15.8904 3 15.1867 3ZM16.0712 17.6766L12.0911 15.467C11.9566 15.3924 11.8041 15.3532 11.6488 15.3532C11.4936 15.3532 11.341 15.3924 11.2066 15.467L7.22647 17.6766V5.54949C7.22647 5.3241 7.31965 5.10795 7.48552 4.94857C7.65139 4.7892 7.87636 4.69966 8.11094 4.69966H15.1867C15.4213 4.69966 15.6463 4.7892 15.8121 4.94857C15.978 5.10795 16.0712 5.3241 16.0712 5.54949V17.6766Z" fill="black"/>
</svg>
