<svg width="12" height="12" viewBox="0 0 12 12" fill="none" xmlns="http://www.w3.org/2000/svg">
<path fill-rule="evenodd" clip-rule="evenodd" d="M9.47945 4.63365C9.47945 2.12761 7.44791 0.0960693 4.94188 0.0960693C2.43584 0.0960693 0.404297 2.12761 0.404297 4.63365C0.404297 7.13968 2.43584 9.17123 4.94188 9.17123C5.92404 9.17123 6.83332 8.85918 7.57599 8.32882L10.4625 11.215L10.5288 11.273C10.7829 11.4664 11.1471 11.4471 11.3792 11.215C11.6323 10.9619 11.6323 10.5514 11.3792 10.2983L8.5135 7.43274C9.11862 6.66169 9.47945 5.68981 9.47945 4.63365ZM1.26896 4.63365C1.26896 2.60496 2.91355 0.960373 4.94224 0.960373C6.97094 0.960373 8.61552 2.60496 8.61552 4.63365C8.61552 6.66235 6.97094 8.30693 4.94224 8.30693C2.91355 8.30693 1.26896 6.66235 1.26896 4.63365Z" fill="black"/>
</svg>
