<svg width="14" height="13" viewBox="0 0 14 13" fill="none" xmlns="http://www.w3.org/2000/svg">
<path fill-rule="evenodd" clip-rule="evenodd" d="M11.121 5.18305C11.121 2.38013 8.84877 0.10791 6.04585 0.10791C3.24292 0.10791 0.970703 2.38013 0.970703 5.18305C0.970703 7.98598 3.24292 10.2582 6.04585 10.2582C7.14437 10.2582 8.16137 9.90918 8.99202 9.31599L12.2205 12.5441L12.2947 12.609C12.5789 12.8253 12.9863 12.8037 13.2458 12.5441C13.5289 12.261 13.5289 11.8019 13.2458 11.5188L10.0406 8.31376C10.7174 7.45136 11.121 6.36434 11.121 5.18305ZM1.93773 5.18241C1.93773 2.91338 3.77715 1.07396 6.04618 1.07396C8.31522 1.07396 10.1546 2.91338 10.1546 5.18241C10.1546 7.45144 8.31522 9.29086 6.04618 9.29086C3.77715 9.29086 1.93773 7.45144 1.93773 5.18241Z" fill="#F5F5F5"/>
</svg>
