<svg width="20" height="20" viewBox="0 0 20 20" fill="none" xmlns="http://www.w3.org/2000/svg">
<g clip-path="url(#clip0_1407_275)">
<path d="M19.1668 9.99992C19.1668 15.0625 15.0627 19.1666 10.0002 19.1666C4.93755 19.1666 0.833496 15.0625 0.833496 9.99992C0.833496 4.93731 4.93755 0.833252 10.0002 0.833252C15.0627 0.833252 19.1668 4.93731 19.1668 9.99992ZM2.50585 9.99992C2.50585 14.1389 5.86117 17.4943 10.0002 17.4943C14.1392 17.4943 17.4945 14.1389 17.4945 9.99992C17.4945 5.86093 14.1392 2.50561 10.0002 2.50561C5.86117 2.50561 2.50585 5.86093 2.50585 9.99992Z" fill="#085A87"/>
<path d="M9.99984 4.16675C9.53959 4.16675 9.1665 4.53984 9.1665 5.00008V10.389C9.1665 10.389 9.1665 10.6062 9.27209 10.7697C9.34275 10.9082 9.45292 11.0287 9.59767 11.1122L13.4475 13.335C13.8461 13.5651 14.3558 13.4285 14.5858 13.0299C14.8159 12.6313 14.6794 12.1217 14.2808 11.8916L10.8332 9.90108V5.00008C10.8332 4.53985 10.4601 4.16675 9.99984 4.16675Z" fill="#085A87"/>
</g>
<defs>
<clipPath id="clip0_1407_275">
<rect width="20" height="20" fill="white"/>
</clipPath>
</defs>
</svg>
