<svg width="17" height="17" viewBox="0 0 17 17" fill="none" xmlns="http://www.w3.org/2000/svg">
<path d="M7.25136 9.44755C9.09477 9.44755 10.5892 7.95317 10.5892 6.10976C10.5892 4.26635 9.09477 2.77197 7.25136 2.77197C5.40795 2.77197 3.91357 4.26635 3.91357 6.10976C3.91357 7.95317 5.40795 9.44755 7.25136 9.44755Z" fill="white"/>
<path d="M13.2593 7.44482V11.4502" stroke="white" stroke-width="1.09237" stroke-linecap="round"/>
<path d="M15.2622 9.44775H11.2568" stroke="white" stroke-width="1.09237" stroke-linecap="round"/>
<path d="M12.0192 14.3758C12.3274 14.3061 12.5121 13.9857 12.3756 13.7008C12.0072 12.9325 11.4018 12.2572 10.6172 11.7483C9.65159 11.1222 8.46848 10.7827 7.25139 10.7827C6.03431 10.7827 4.85122 11.1222 3.88564 11.7483C3.10096 12.2572 2.49556 12.9324 2.12719 13.7008C1.9906 13.9857 2.17544 14.3061 2.4836 14.3758C5.62239 15.0867 8.88036 15.0867 12.0192 14.3758Z" fill="white"/>
</svg>
